<svg xmlns="http://www.w3.org/2000/svg" xmlns:xlink="http://www.w3.org/1999/xlink" width="500" zoomAndPan="magnify" viewBox="0 0 375 374.999991" height="500" preserveAspectRatio="xMidYMid meet" version="1.0"><defs><clipPath id="125f722e4a"><path d="M 40 138 L 326 138 L 326 312.714844 L 40 312.714844 Z M 40 138 " clip-rule="nonzero"/></clipPath><clipPath id="eacf48fac8"><path d="M 123 29.214844 L 243 29.214844 L 243 81 L 123 81 Z M 123 29.214844 " clip-rule="nonzero"/></clipPath><clipPath id="e0040fab13"><path d="M 94 115.472656 L 269.839844 115.472656 L 269.839844 123 L 94 123 Z M 94 115.472656 " clip-rule="nonzero"/></clipPath><clipPath id="2f159b3953"><path d="M 191 123 L 248 123 L 248 126.722656 L 191 126.722656 Z M 191 123 " clip-rule="nonzero"/></clipPath><clipPath id="b077132580"><path d="M 100 231 L 250 231 L 250 239 L 100 239 Z M 100 231 " clip-rule="nonzero"/></clipPath><clipPath id="8b8bcc4efa"><path d="M 249.710938 237.042969 L 99.734375 239.769531 L 99.558594 230.023438 L 249.535156 227.292969 Z M 249.710938 237.042969 " clip-rule="nonzero"/></clipPath><clipPath id="b6c368e251"><path d="M 249.710938 237.042969 L 99.734375 239.769531 L 99.558594 230.023438 L 249.535156 227.292969 Z M 249.710938 237.042969 " clip-rule="nonzero"/></clipPath><clipPath id="107b7801af"><path d="M 249.710938 237.042969 L 99.734375 239.769531 L 99.558594 230.023438 L 249.535156 227.292969 Z M 249.710938 237.042969 " clip-rule="nonzero"/></clipPath><clipPath id="797a838f7a"><path d="M 182 227 L 231 227 L 231 231 L 182 231 Z M 182 227 " clip-rule="nonzero"/></clipPath><clipPath id="cc874cec93"><path d="M 249.710938 237.042969 L 99.734375 239.769531 L 99.558594 230.023438 L 249.535156 227.292969 Z M 249.710938 237.042969 " clip-rule="nonzero"/></clipPath><clipPath id="137ecce371"><path d="M 249.710938 237.042969 L 99.734375 239.769531 L 99.558594 230.023438 L 249.535156 227.292969 Z M 249.710938 237.042969 " clip-rule="nonzero"/></clipPath><clipPath id="ca27759ed3"><path d="M 249.710938 237.042969 L 99.734375 239.769531 L 99.558594 230.023438 L 249.535156 227.292969 Z M 249.710938 237.042969 " clip-rule="nonzero"/></clipPath><clipPath id="72a6c65cb9"><path d="M 176 229 L 182 229 L 182 231 L 176 231 Z M 176 229 " clip-rule="nonzero"/></clipPath><clipPath id="550544a206"><path d="M 249.710938 237.042969 L 99.734375 239.769531 L 99.558594 230.023438 L 249.535156 227.292969 Z M 249.710938 237.042969 " clip-rule="nonzero"/></clipPath><clipPath id="ad4d18528e"><path d="M 249.710938 237.042969 L 99.734375 239.769531 L 99.558594 230.023438 L 249.535156 227.292969 Z M 249.710938 237.042969 " clip-rule="nonzero"/></clipPath><clipPath id="743e0d3538"><path d="M 249.710938 237.042969 L 99.734375 239.769531 L 99.558594 230.023438 L 249.535156 227.292969 Z M 249.710938 237.042969 " clip-rule="nonzero"/></clipPath><clipPath id="c3467721b5"><path d="M 101 174 L 248 174 L 248 179 L 101 179 Z M 101 174 " clip-rule="nonzero"/></clipPath><clipPath id="d33950d550"><path d="M 99.867188 167.125 L 249.699219 174.152344 L 249.242188 183.894531 L 99.410156 176.863281 Z M 99.867188 167.125 " clip-rule="nonzero"/></clipPath><clipPath id="5935dfe019"><path d="M 99.867188 167.125 L 249.699219 174.152344 L 249.242188 183.894531 L 99.410156 176.863281 Z M 99.867188 167.125 " clip-rule="nonzero"/></clipPath><clipPath id="c0a977658c"><path d="M 99.867188 167.125 L 249.699219 174.152344 L 249.242188 183.894531 L 99.410156 176.863281 Z M 99.867188 167.125 " clip-rule="nonzero"/></clipPath><clipPath id="09a5db2613"><path d="M 132 172 L 222 172 L 222 175 L 132 175 Z M 132 172 " clip-rule="nonzero"/></clipPath><clipPath id="924663a1f2"><path d="M 99.867188 167.125 L 249.699219 174.152344 L 249.242188 183.894531 L 99.410156 176.863281 Z M 99.867188 167.125 " clip-rule="nonzero"/></clipPath><clipPath id="f65a05fb10"><path d="M 99.867188 167.125 L 249.699219 174.152344 L 249.242188 183.894531 L 99.410156 176.863281 Z M 99.867188 167.125 " clip-rule="nonzero"/></clipPath><clipPath id="8c48e413f6"><path d="M 99.867188 167.125 L 249.699219 174.152344 L 249.242188 183.894531 L 99.410156 176.863281 Z M 99.867188 167.125 " clip-rule="nonzero"/></clipPath></defs><path fill="#000000" d="M 324.855469 131.335938 C 324.855469 135.75 324.722656 138.046875 324.722656 138.046875 C 324.722656 138.046875 324.722656 135.800781 324.433594 131.597656 C 324.246094 128.453125 324.011719 124.171875 323.640625 118.882812 C 323.191406 112.75 322.554688 105.242188 321.605469 96.597656 C 321.101562 92.261719 320.546875 87.636719 319.9375 82.746094 C 319.453125 77.667969 318.53125 72.671875 317.164062 67.757812 C 316.410156 65.257812 315.222656 62.984375 313.59375 60.9375 L 313.011719 60.222656 C 312.8125 60.09375 312.625 59.945312 312.457031 59.773438 C 311.992188 59.464844 311.5 59.210938 310.976562 59.007812 C 309.757812 58.527344 308.496094 58.203125 307.199219 58.03125 C 301.222656 57.378906 295.25 57.378906 289.273438 58.03125 C 286.128906 58.269531 282.929688 58.613281 279.652344 58.957031 L 274.523438 58.957031 C 272.886719 58.957031 271.21875 59.113281 269.554688 59.246094 C 262.867188 59.722656 255.964844 60.515625 248.855469 61.253906 C 245.285156 61.625 241.664062 61.96875 237.964844 62.234375 C 234.261719 62.496094 230.589844 62.550781 226.863281 62.734375 L 204.046875 63.582031 C 188.582031 64.320312 172.589844 64.136719 156.332031 63.871094 C 122.167969 63.203125 88.128906 60.777344 54.214844 56.601562 C 52.566406 56.335938 50.910156 56.167969 49.246094 56.101562 C 47.976562 56.101562 47.816406 56.3125 47.339844 57.050781 C 46.515625 60.054688 46.082031 63.113281 46.046875 66.226562 C 45.492188 73.046875 44.988281 79.574219 44.488281 85.8125 C 43.535156 98.289062 42.785156 109.613281 42.238281 119.78125 C 41.15625 140.003906 40.734375 155.546875 40.628906 165.992188 C 40.523438 176.433594 40.308594 181.851562 40.308594 181.851562 C 40.308594 181.851562 39.992188 175.453125 39.4375 163.691406 C 38.882812 151.925781 38.460938 134.957031 38.671875 113.410156 C 38.828125 102.703125 39.199219 90.941406 39.78125 78.226562 C 39.941406 75.054688 40.097656 71.828125 40.257812 68.523438 C 40.257812 66.886719 40.414062 65.21875 40.523438 63.554688 C 40.628906 61.890625 40.652344 60.304688 40.863281 58.269531 C 40.960938 57.050781 41.277344 55.890625 41.8125 54.789062 C 42.34375 53.691406 43.0625 52.726562 43.957031 51.898438 C 45.09375 51.03125 46.371094 50.519531 47.792969 50.363281 C 48.902344 50.234375 50.011719 50.234375 51.121094 50.363281 L 61.695312 51.421875 C 90.378906 54.066406 122.335938 56.230469 156.492188 56.972656 C 173.675781 57.316406 190.328125 57.476562 206.242188 56.972656 L 229.609375 56.46875 C 237.277344 56.46875 244.492188 55.835938 251.738281 55.28125 C 258.980469 54.726562 266.011719 54.089844 272.886719 53.933594 C 274.601562 53.933594 276.320312 53.933594 278.171875 53.933594 C 278.507812 53.957031 278.839844 53.957031 279.175781 53.933594 L 280.417969 53.933594 L 282.902344 53.773438 C 286.234375 53.007812 289.511719 53.007812 292.738281 52.820312 C 295.960938 52.636719 299.160156 52.820312 302.308594 52.980469 C 305.53125 53.140625 308.675781 53.71875 311.746094 54.726562 C 313.484375 55.328125 314.992188 56.296875 316.265625 57.632812 C 317.296875 58.855469 318.179688 60.175781 318.90625 61.597656 C 320.167969 64.234375 321.050781 66.992188 321.550781 69.871094 C 322.425781 74.933594 323 80.023438 323.269531 85.152344 C 323.640625 89.910156 323.957031 94.429688 324.195312 98.609375 C 324.671875 107.015625 324.855469 114.203125 324.910156 120.046875 C 324.882812 124.671875 324.882812 128.453125 324.855469 131.335938 Z M 324.855469 131.335938 " fill-opacity="1" fill-rule="nonzero"/><g clip-path="url(#125f722e4a)"><path fill="#000000" d="M 325.121094 158.191406 C 325.121094 171.199219 324.699219 190.152344 322.476562 213.707031 C 321.480469 226.738281 319.71875 239.664062 317.191406 252.484375 C 315.621094 259.816406 313.222656 266.867188 310 273.632812 C 308.21875 277.230469 306.128906 280.640625 303.734375 283.863281 C 301.171875 287.183594 298.261719 290.171875 295.011719 292.824219 C 291.566406 295.476562 287.878906 297.726562 283.945312 299.582031 C 280.015625 301.4375 275.929688 302.847656 271.695312 303.820312 C 263.101562 305.808594 254.40625 307.066406 245.605469 307.601562 C 228.023438 309.003906 209.679688 310.246094 190.699219 310.933594 C 152.5 312.570312 116.679688 312.597656 84.722656 311.726562 C 76.789062 311.488281 68.859375 311.222656 61.40625 310.90625 C 59.414062 310.859375 57.429688 310.691406 55.457031 310.40625 C 53.117188 310.085938 51.042969 309.160156 49.246094 307.628906 C 47.597656 305.902344 46.589844 303.855469 46.230469 301.496094 C 45.835938 299.460938 45.753906 297.714844 45.570312 295.972656 C 44.222656 281.960938 43.246094 269.007812 42.503906 257.21875 C 41.023438 233.636719 40.574219 214.921875 40.390625 201.863281 C 40.203125 188.804688 40.390625 181.902344 40.390625 181.902344 C 40.390625 181.902344 40.839844 189.492188 41.660156 203.050781 C 42.476562 216.613281 43.957031 236.253906 46.441406 260.257812 C 47.710938 272.207031 49.085938 285.421875 51.042969 299.25 C 51.179688 300.652344 51.628906 301.949219 52.390625 303.136719 C 53.167969 304.113281 54.171875 304.710938 55.40625 304.933594 C 58.859375 305.40625 62.332031 305.59375 65.820312 305.488281 L 88.898438 305.699219 C 120.40625 305.699219 154.984375 305.25 190.621094 303.714844 C 211.765625 302.792969 231.804688 301.65625 250.496094 300.28125 C 253.429688 300.042969 256.308594 299.75 259.113281 299.382812 L 260.300781 299.222656 C 265.839844 298.539062 271.269531 297.347656 276.585938 295.652344 C 280.476562 294.382812 284.167969 292.679688 287.660156 290.550781 C 290.988281 288.484375 294 286.035156 296.703125 283.203125 C 299.269531 280.386719 301.535156 277.347656 303.496094 274.082031 C 305.351562 270.871094 306.953125 267.542969 308.308594 264.089844 C 310.855469 257.453125 312.792969 250.640625 314.125 243.65625 C 315.472656 236.96875 316.398438 230.4375 317.269531 224.226562 C 318.140625 218.015625 318.90625 212.144531 319.59375 206.566406 C 322.027344 186.53125 323.164062 170.644531 323.824219 159.25 C 323.824219 157.980469 323.957031 156.765625 324.011719 155.601562 C 324.566406 144.050781 324.699219 138.101562 324.699219 138.101562 C 324.699219 138.101562 324.699219 139.871094 324.855469 143.386719 C 324.855469 144.605469 324.855469 146.03125 324.855469 147.617188 C 325.066406 150.421875 325.121094 153.988281 325.121094 158.191406 Z M 325.121094 158.191406 " fill-opacity="1" fill-rule="nonzero"/></g><path fill="#74edf1" d="M 324.433594 131.652344 C 324.433594 132.707031 324.195312 134.082031 324.035156 135.75 C 324.035156 138.023438 323.453125 140.824219 322.925781 144.15625 C 322.660156 145.820312 322.476562 147.617188 322.054688 149.441406 C 321.632812 151.265625 321.207031 153.378906 320.730469 155.523438 C 318.308594 166.046875 314.78125 176.1875 310.15625 185.949219 C 303.703125 199.164062 295.558594 211.246094 285.730469 222.191406 C 280.089844 228.46875 274.027344 234.3125 267.546875 239.71875 C 264.503906 242.359375 261.253906 244.6875 258.1875 247.066406 C 256.707031 248.28125 255.066406 249.234375 253.535156 250.316406 L 249.726562 252.960938 C 248.378906 253.886719 247.085938 254.757812 245.734375 255.605469 L 250.152344 259.042969 C 250.863281 259.621094 251.5 260.203125 252.105469 260.785156 L 253.113281 261.765625 C 254.425781 263.066406 255.667969 264.433594 256.839844 265.863281 C 259.023438 268.503906 260.898438 271.351562 262.46875 274.398438 C 263.894531 277.003906 264.636719 279.785156 264.691406 282.753906 C 264.691406 285.757812 264.210938 288.6875 263.25 291.53125 C 262.285156 294.378906 260.886719 296.996094 259.058594 299.382812 C 256.257812 299.75 253.375 300.042969 250.441406 300.28125 C 231.753906 301.65625 211.714844 302.792969 190.566406 303.714844 C 154.800781 305.25 120.355469 305.804688 88.84375 305.699219 L 65.765625 305.488281 C 62.28125 305.59375 58.808594 305.40625 55.351562 304.933594 C 54.121094 304.710938 53.117188 304.113281 52.339844 303.136719 C 51.574219 301.949219 51.125 300.652344 50.988281 299.25 C 49.246094 285.421875 47.710938 272.207031 46.441406 260.257812 C 43.957031 236.253906 42.503906 216.640625 41.578125 203.027344 C 40.652344 189.410156 40.308594 181.878906 40.308594 181.878906 C 40.308594 181.878906 40.308594 176.589844 40.628906 166.015625 C 40.945312 155.441406 41.15625 140.03125 42.238281 119.753906 C 42.785156 109.605469 43.535156 98.28125 44.488281 85.785156 C 44.988281 79.546875 45.492188 73.019531 46.046875 66.199219 C 46.078125 63.105469 46.503906 60.0625 47.316406 57.078125 C 47.792969 56.339844 47.949219 56.230469 49.21875 56.125 C 50.894531 56.195312 52.558594 56.359375 54.214844 56.628906 C 88.160156 60.878906 122.234375 63.375 156.4375 64.109375 C 172.695312 64.375 188.691406 64.558594 204.152344 63.820312 L 226.96875 62.972656 C 230.695312 62.789062 234.367188 62.734375 238.070312 62.472656 C 241.769531 62.207031 245.390625 61.863281 248.960938 61.492188 C 256.070312 60.753906 262.972656 59.960938 269.660156 59.484375 C 271.324219 59.484375 272.992188 59.273438 274.628906 59.191406 L 279.890625 59.191406 C 283.167969 58.847656 286.367188 58.503906 289.511719 58.269531 C 295.488281 57.617188 301.460938 57.617188 307.433594 58.269531 C 308.734375 58.441406 309.996094 58.765625 311.214844 59.246094 C 311.738281 59.449219 312.230469 59.703125 312.695312 60.011719 C 312.863281 60.183594 313.050781 60.332031 313.25 60.460938 L 313.59375 60.9375 C 315.179688 62.984375 316.335938 65.246094 317.058594 67.730469 C 318.425781 72.644531 319.347656 77.640625 319.832031 82.71875 C 320.441406 87.609375 320.996094 92.238281 321.5 96.570312 C 322.449219 105.214844 323.085938 112.722656 323.535156 118.855469 C 324.011719 124.222656 324.167969 128.503906 324.433594 131.652344 Z M 324.433594 131.652344 " fill-opacity="1" fill-rule="nonzero"/><path fill="#0c95ad" d="M 323.851562 159.25 C 323.191406 170.644531 322.054688 186.53125 319.621094 206.566406 C 318.933594 212.144531 318.195312 218.039062 317.296875 224.226562 C 316.398438 230.414062 315.496094 236.96875 314.148438 243.65625 C 312.820312 250.640625 310.878906 257.453125 308.335938 264.089844 C 306.964844 267.542969 305.34375 270.875 303.46875 274.082031 C 301.507812 277.347656 299.242188 280.386719 296.675781 283.203125 C 293.972656 286.035156 290.960938 288.484375 287.636719 290.550781 C 284.148438 292.679688 280.464844 294.378906 276.585938 295.652344 C 271.277344 297.347656 265.859375 298.535156 260.328125 299.222656 C 262.363281 297.035156 264.007812 294.585938 265.261719 291.875 C 266.519531 289.164062 267.324219 286.328125 267.675781 283.363281 C 267.914062 281.703125 267.914062 280.046875 267.675781 278.390625 C 267.417969 276.632812 266.96875 274.921875 266.328125 273.261719 C 264.976562 269.691406 263.214844 266.335938 261.042969 263.191406 C 259.871094 261.492188 258.609375 259.863281 257.261719 258.300781 C 256.921875 257.875 256.558594 257.472656 256.179688 257.085938 C 256.0625 256.960938 255.957031 256.828125 255.859375 256.6875 L 255.4375 256.1875 C 255.617188 256.082031 255.800781 255.996094 255.992188 255.921875 L 256.230469 255.921875 L 256.8125 255.605469 C 258.425781 254.601562 260.144531 253.703125 261.753906 252.539062 C 264.980469 250.265625 268.46875 248.097656 271.722656 245.402344 C 278.820312 239.941406 285.359375 233.878906 291.335938 227.214844 C 300.914062 216.519531 308.625 204.613281 314.46875 191.5 C 318.996094 181.15625 322.125 170.40625 323.851562 159.25 Z M 323.851562 159.25 " fill-opacity="1" fill-rule="nonzero"/><path fill="#000000" d="M 325.015625 147.484375 C 324.828125 150.921875 324.460938 154.753906 323.90625 158.957031 C 323.90625 158.957031 323.90625 159.144531 323.90625 159.25 C 322.132812 170.375 318.96875 181.089844 314.414062 191.394531 C 308.570312 204.507812 300.863281 216.414062 291.285156 227.109375 C 285.304688 233.773438 278.765625 239.835938 271.667969 245.296875 C 268.417969 247.9375 264.929688 250.160156 261.703125 252.433594 C 260.089844 253.597656 258.371094 254.496094 256.757812 255.5 L 256.179688 255.816406 L 255.941406 255.816406 C 255.746094 255.886719 255.5625 255.976562 255.386719 256.082031 L 255.808594 256.582031 C 255.90625 256.722656 256.011719 256.855469 256.125 256.980469 C 256.507812 257.367188 256.867188 257.769531 257.207031 258.195312 C 258.558594 259.757812 259.816406 261.386719 260.988281 263.085938 C 263.160156 266.226562 264.921875 269.585938 266.277344 273.15625 C 266.914062 274.816406 267.363281 276.527344 267.625 278.285156 C 267.863281 279.941406 267.863281 281.597656 267.625 283.253906 C 267.269531 286.222656 266.464844 289.058594 265.210938 291.769531 C 263.953125 294.480469 262.308594 296.929688 260.277344 299.117188 C 259.746094 299.671875 259.246094 300.175781 258.796875 300.597656 C 258.070312 301.265625 257.300781 301.882812 256.496094 302.449219 L 255.835938 302.921875 L 256.414062 302.316406 C 257.148438 301.625 257.828125 300.882812 258.453125 300.09375 L 259.085938 299.273438 C 260.914062 296.890625 262.3125 294.273438 263.273438 291.425781 C 264.238281 288.578125 264.71875 285.652344 264.714844 282.648438 C 264.664062 279.679688 263.921875 276.894531 262.496094 274.292969 C 260.925781 271.246094 259.050781 268.398438 256.867188 265.753906 C 255.695312 264.390625 254.464844 263.085938 253.164062 261.84375 L 252.160156 260.867188 C 251.550781 260.285156 250.917969 259.703125 250.203125 259.121094 L 245.734375 255.605469 C 246.953125 254.730469 248.378906 253.859375 249.726562 252.960938 L 253.535156 250.316406 C 255.066406 249.234375 256.707031 248.28125 258.1875 247.066406 C 261.253906 244.6875 264.503906 242.441406 267.546875 239.71875 C 274.027344 234.308594 280.089844 228.46875 285.730469 222.191406 C 295.507812 211.261719 303.605469 199.207031 310.027344 186.027344 C 314.652344 176.269531 318.175781 166.125 320.601562 155.601562 C 321.074219 153.460938 321.523438 151.425781 321.921875 149.519531 C 322.316406 147.617188 322.53125 145.820312 322.792969 144.234375 C 323.324219 140.902344 323.773438 138.101562 323.90625 135.828125 C 324.0625 134.164062 324.195312 132.789062 324.300781 131.730469 C 324.460938 129.855469 324.566406 128.902344 324.566406 128.902344 C 324.566406 128.902344 324.566406 129.773438 324.722656 131.546875 C 324.722656 132.867188 324.828125 134.628906 325.042969 136.832031 C 325.277344 139.632812 325.253906 143.257812 325.015625 147.484375 Z M 325.015625 147.484375 " fill-opacity="1" fill-rule="nonzero"/><g clip-path="url(#eacf48fac8)"><path fill="#000000" d="M 233.574219 62.445312 C 233.464844 62.519531 233.378906 62.613281 233.316406 62.730469 C 233.253906 62.847656 233.222656 62.972656 233.222656 63.105469 C 233.222656 63.238281 233.253906 63.363281 233.316406 63.480469 C 233.378906 63.597656 233.464844 63.691406 233.574219 63.765625 C 233.855469 63.902344 234.144531 63.996094 234.449219 64.058594 C 234.949219 64.242188 235.398438 64.402344 235.902344 64.53125 C 236.878906 64.875 237.832031 65.167969 238.730469 65.433594 C 239.035156 65.453125 239.332031 65.519531 239.617188 65.628906 C 239.902344 65.742188 240.164062 65.894531 240.402344 66.089844 C 240.636719 66.285156 240.839844 66.511719 241.003906 66.769531 C 241.171875 67.027344 241.296875 67.304688 241.375 67.597656 C 241.640625 68.761719 240.792969 69.6875 240.160156 70.453125 L 238.679688 72.226562 L 236.035156 75.238281 L 231.644531 80.5 C 231.988281 80.023438 233.390625 77.855469 235.742188 74.523438 L 238.042969 71.195312 L 239.3125 69.398438 C 239.628906 68.949219 239.972656 68.390625 239.628906 67.835938 C 239.285156 67.28125 238.703125 67.253906 238.070312 67.097656 L 235.269531 66.4375 L 233.707031 66.226562 C 232.976562 66.121094 232.300781 65.875 231.671875 65.484375 C 231.363281 65.265625 231.113281 64.992188 230.921875 64.664062 C 230.730469 64.339844 230.613281 63.988281 230.574219 63.609375 C 230.53125 63.234375 230.570312 62.867188 230.691406 62.503906 C 230.808594 62.144531 230.996094 61.824219 231.25 61.546875 C 232.703125 59.40625 234.261719 57.132812 235.929688 54.75 L 238.441406 51.183594 C 238.890625 50.707031 238.730469 50.179688 238.230469 50.125 L 232.175781 48.011719 L 230.535156 47.457031 L 229.347656 47.03125 C 228.847656 46.875 228.386719 46.636719 227.972656 46.320312 C 227.78125 46.15625 227.613281 45.976562 227.460938 45.78125 C 227.308594 45.582031 227.179688 45.371094 227.070312 45.148438 C 226.960938 44.921875 226.878906 44.691406 226.820312 44.449219 C 226.761719 44.207031 226.726562 43.960938 226.71875 43.710938 C 226.714844 43.460938 226.730469 43.214844 226.777344 42.96875 C 226.820312 42.722656 226.890625 42.488281 226.984375 42.253906 C 227.078125 42.023438 227.195312 41.808594 227.335938 41.601562 C 227.472656 41.394531 227.632812 41.203125 227.8125 41.03125 C 229.742188 39.15625 231.699219 37.171875 233.707031 35.191406 C 235.082031 33.84375 234.605469 34.292969 234.738281 34.132812 L 234.582031 34.132812 L 216.894531 35.375 C 190.011719 37.066406 166.667969 37.859375 150.015625 38.625 L 124.503906 39.789062 L 123.949219 39.789062 C 126.222656 39.417969 136.214844 37.886719 151.046875 36.222656 C 167.992188 34.292969 191.332031 32.335938 216.605469 30.75 L 236.246094 29.214844 C 236.808594 29.179688 237.351562 29.265625 237.875 29.472656 C 238.394531 29.683594 238.851562 29.992188 239.234375 30.40625 C 239.613281 30.820312 239.890625 31.296875 240.0625 31.832031 C 240.238281 32.367188 240.296875 32.914062 240.238281 33.472656 C 240.0625 34.652344 239.5 35.605469 238.546875 36.328125 L 236.640625 38.097656 C 234.820312 39.84375 233.046875 41.457031 231.355469 43.066406 C 231.285156 43.113281 231.25 43.179688 231.25 43.265625 C 231.25 43.351562 231.285156 43.417969 231.355469 43.464844 L 231.777344 43.621094 L 233.417969 44.257812 L 240 46.902344 C 240.609375 47.121094 241.113281 47.488281 241.511719 48 C 241.914062 48.507812 242.148438 49.085938 242.21875 49.730469 C 242.285156 50.359375 242.164062 50.949219 241.851562 51.5 C 241.558594 52.015625 241.230469 52.507812 240.871094 52.980469 C 239.921875 54.144531 239.023438 55.253906 238.230469 56.390625 C 236.589844 58.585938 235.03125 60.566406 233.574219 62.445312 Z M 233.574219 62.445312 " fill-opacity="1" fill-rule="nonzero"/></g><path fill="#ffffff" d="M 239.207031 69.398438 L 237.9375 71.195312 L 235.636719 74.523438 C 233.285156 77.910156 231.882812 80.023438 231.539062 80.5 C 223.1875 80.5 185.4375 81.132812 139.707031 83.777344 L 132.542969 84.199219 C 132.8125 83.8125 133.101562 83.445312 133.414062 83.089844 L 134.046875 82.375 C 134.328125 82.039062 134.625 81.722656 134.945312 81.425781 C 135.222656 81.167969 135.453125 80.875 135.640625 80.546875 C 135.828125 80.222656 135.964844 79.875 136.050781 79.507812 C 136.132812 79.140625 136.164062 78.769531 136.136719 78.394531 C 136.113281 78.015625 136.03125 77.652344 135.898438 77.300781 C 135.527344 75.953125 133.574219 74.921875 133.253906 74.65625 L 129.394531 72.015625 C 127.015625 70.347656 124.769531 68.761719 122.574219 67.175781 C 122.335938 67.175781 122.152344 66.753906 122.417969 66.621094 L 122.601562 66.621094 C 122.734375 66.621094 122.601562 66.621094 123 66.4375 L 124.902344 65.882812 L 132.410156 63.582031 C 132.65625 63.523438 132.890625 63.441406 133.113281 63.328125 C 133.339844 63.210938 133.546875 63.074219 133.738281 62.910156 C 133.929688 62.746094 134.097656 62.5625 134.246094 62.359375 C 134.390625 62.152344 134.511719 61.933594 134.605469 61.699219 C 134.699219 61.464844 134.761719 61.222656 134.796875 60.976562 C 134.832031 60.726562 134.839844 60.476562 134.8125 60.226562 C 134.789062 59.976562 134.730469 59.730469 134.648438 59.492188 C 134.5625 59.257812 134.453125 59.03125 134.3125 58.824219 C 133.699219 58.128906 133.019531 57.503906 132.277344 56.945312 L 130.796875 55.652344 C 128.8125 54.089844 126.992188 52.585938 125.21875 51.15625 L 116.230469 44.046875 C 116.050781 43.976562 115.886719 43.878906 115.746094 43.746094 C 115.601562 43.613281 115.488281 43.460938 115.40625 43.289062 C 115.320312 43.113281 115.273438 42.929688 115.261719 42.734375 C 115.25 42.542969 115.273438 42.351562 115.332031 42.167969 C 115.515625 41.429688 116.285156 41.324219 116.867188 41.191406 L 120.433594 40.34375 C 121.675781 40.027344 123.261719 39.789062 124.375 39.5 L 149.882812 38.335938 C 166.511719 37.570312 189.878906 36.777344 216.761719 35.085938 L 234.449219 33.84375 L 234.605469 33.84375 C 234.605469 34 234.949219 33.550781 233.574219 34.898438 C 231.566406 36.882812 229.609375 38.863281 227.679688 40.742188 C 227.5 40.914062 227.34375 41.105469 227.203125 41.308594 C 227.0625 41.515625 226.945312 41.734375 226.851562 41.964844 C 226.757812 42.195312 226.6875 42.433594 226.644531 42.679688 C 226.597656 42.925781 226.582031 43.171875 226.589844 43.421875 C 226.597656 43.667969 226.628906 43.914062 226.6875 44.15625 C 226.746094 44.398438 226.828125 44.632812 226.9375 44.855469 C 227.046875 45.082031 227.175781 45.292969 227.328125 45.488281 C 227.480469 45.6875 227.648438 45.867188 227.839844 46.027344 C 228.257812 46.347656 228.714844 46.582031 229.214844 46.742188 L 230.402344 47.164062 L 232.042969 47.71875 L 238.097656 49.835938 C 238.597656 49.835938 238.757812 50.417969 238.308594 50.890625 L 235.796875 54.460938 C 234.132812 56.839844 232.570312 59.113281 231.117188 61.253906 C 230.980469 61.398438 230.859375 61.554688 230.757812 61.722656 C 230.652344 61.894531 230.570312 62.074219 230.507812 62.261719 C 230.445312 62.449219 230.40625 62.640625 230.386719 62.839844 C 230.367188 63.035156 230.371094 63.234375 230.394531 63.429688 C 230.421875 63.628906 230.46875 63.820312 230.535156 64.003906 C 230.605469 64.191406 230.695312 64.367188 230.800781 64.535156 C 230.910156 64.699219 231.035156 64.851562 231.179688 64.992188 C 231.320312 65.128906 231.476562 65.25 231.644531 65.351562 C 232.273438 65.742188 232.953125 65.988281 233.683594 66.09375 L 235.136719 66.4375 L 237.9375 67.097656 C 238.570312 67.253906 239.207031 67.230469 239.496094 67.835938 C 239.789062 68.445312 239.578125 68.867188 239.207031 69.398438 Z M 239.207031 69.398438 " fill-opacity="1" fill-rule="nonzero"/><path fill="#000000" d="M 233.285156 80.472656 C 233.285156 80.472656 188.769531 85.601562 139.945312 88.402344 L 135.371094 88.667969 L 133.148438 88.800781 L 131.273438 88.800781 C 130.613281 88.835938 129.984375 88.703125 129.394531 88.402344 C 128.839844 88.132812 128.371094 87.75 127.992188 87.253906 C 127.617188 86.761719 127.371094 86.210938 127.253906 85.601562 C 127.148438 84.976562 127.183594 84.363281 127.359375 83.753906 C 127.535156 83.148438 127.835938 82.609375 128.257812 82.136719 L 129.265625 80.871094 L 129.949219 79.996094 L 130.71875 79.179688 L 131.246094 78.597656 C 131.246094 78.597656 131.484375 78.726562 130.558594 78.042969 C 129.632812 77.355469 127.914062 76.136719 126.804688 75.1875 L 119.164062 69.398438 C 118.941406 69.238281 118.734375 69.054688 118.554688 68.847656 C 118.371094 68.640625 118.214844 68.414062 118.085938 68.167969 C 117.957031 67.925781 117.855469 67.671875 117.785156 67.402344 C 117.714844 67.136719 117.675781 66.863281 117.671875 66.589844 C 117.664062 66.3125 117.691406 66.039062 117.746094 65.769531 C 117.804688 65.5 117.894531 65.238281 118.011719 64.988281 C 118.128906 64.738281 118.273438 64.507812 118.449219 64.292969 C 118.621094 64.074219 118.816406 63.882812 119.035156 63.714844 C 119.503906 63.394531 120.015625 63.164062 120.566406 63.027344 L 122.046875 62.601562 L 123.925781 62.128906 L 130.613281 60.460938 C 131.085938 60.460938 131.484375 59.878906 131.085938 59.5625 C 130.691406 59.246094 129.6875 58.269531 128.867188 57.449219 L 123.582031 52.558594 L 115.066406 44.628906 C 114.839844 44.472656 114.640625 44.285156 114.476562 44.0625 C 114.3125 43.839844 114.1875 43.597656 114.109375 43.332031 C 114.027344 43.066406 113.992188 42.796875 114 42.519531 C 114.011719 42.242188 114.066406 41.976562 114.167969 41.71875 C 114.425781 41.308594 114.769531 40.988281 115.199219 40.765625 C 115.632812 40.542969 116.089844 40.449219 116.574219 40.476562 C 118.109375 40.265625 119.402344 40.105469 120.433594 39.921875 L 123.449219 39.578125 L 125.140625 39.578125 C 124.953125 39.578125 124.742188 39.578125 124.480469 39.578125 C 123.394531 39.789062 121.835938 40.105469 120.539062 40.425781 L 116.972656 41.269531 C 116.390625 41.269531 115.625 41.507812 115.4375 42.25 C 115.394531 42.425781 115.378906 42.605469 115.402344 42.785156 C 115.421875 42.96875 115.472656 43.140625 115.554688 43.304688 C 115.636719 43.464844 115.746094 43.609375 115.878906 43.730469 C 116.015625 43.855469 116.167969 43.953125 116.335938 44.019531 L 125.324219 51.128906 C 127.097656 52.558594 128.921875 54.066406 130.902344 55.625 L 132.382812 56.8125 C 133.125 57.371094 133.804688 57.996094 134.417969 58.691406 C 134.558594 58.902344 134.667969 59.125 134.753906 59.363281 C 134.839844 59.597656 134.894531 59.84375 134.917969 60.09375 C 134.945312 60.34375 134.9375 60.59375 134.902344 60.84375 C 134.871094 61.09375 134.804688 61.332031 134.710938 61.566406 C 134.617188 61.800781 134.496094 62.019531 134.351562 62.226562 C 134.203125 62.429688 134.035156 62.613281 133.84375 62.777344 C 133.652344 62.941406 133.445312 63.082031 133.21875 63.195312 C 132.996094 63.308594 132.761719 63.390625 132.515625 63.449219 L 125.007812 65.75 L 123 66.226562 C 122.574219 66.355469 122.734375 66.226562 122.601562 66.410156 L 122.417969 66.410156 C 122.152344 66.542969 122.417969 66.9375 122.574219 66.964844 C 124.769531 68.550781 127.015625 70.136719 129.394531 71.800781 L 133.253906 74.445312 C 133.546875 74.761719 135.503906 75.792969 135.898438 77.089844 C 136.03125 77.441406 136.113281 77.804688 136.136719 78.179688 C 136.164062 78.558594 136.132812 78.929688 136.050781 79.296875 C 135.964844 79.664062 135.828125 80.007812 135.640625 80.335938 C 135.453125 80.664062 135.222656 80.957031 134.945312 81.214844 C 134.625 81.511719 134.328125 81.828125 134.046875 82.164062 L 133.414062 82.878906 C 133.101562 83.230469 132.8125 83.601562 132.542969 83.988281 L 139.707031 83.566406 C 185.4375 80.921875 223.1875 80.367188 231.539062 80.289062 Z M 233.285156 80.472656 " fill-opacity="1" fill-rule="nonzero"/><g clip-path="url(#e0040fab13)"><path fill="#231f20" d="M 269.121094 122.082031 C 269.128906 121.945312 269.082031 121.808594 268.992188 121.707031 C 268.90625 121.601562 268.78125 121.535156 268.648438 121.523438 C 232.578125 117.75 196.105469 116.0625 159.824219 115.640625 C 138.210938 115.480469 116.1875 117.003906 94.851562 120.589844 C 94.695312 120.617188 94.554688 120.703125 94.453125 120.828125 C 94.355469 120.953125 94.304688 121.113281 94.308594 121.273438 C 94.3125 121.339844 94.34375 121.40625 94.390625 121.453125 C 94.441406 121.5 94.507812 121.523438 94.574219 121.523438 C 152.632812 120.34375 210.773438 118.4375 268.785156 122.410156 C 268.828125 122.414062 268.867188 122.410156 268.910156 122.394531 C 268.949219 122.378906 268.984375 122.359375 269.015625 122.328125 C 269.050781 122.300781 269.074219 122.265625 269.09375 122.226562 C 269.109375 122.183594 269.121094 122.144531 269.121094 122.097656 Z M 269.121094 122.082031 " fill-opacity="1" fill-rule="nonzero"/></g><g clip-path="url(#2f159b3953)"><path fill="#231f20" d="M 246.75 126.179688 C 228.648438 123.96875 210.265625 123.230469 192.078125 124.800781 C 191.484375 124.851562 191.027344 125.332031 192.265625 125.339844 C 210.203125 125.4375 228.683594 125.960938 246.617188 126.695312 C 247.75 126.738281 247.269531 126.238281 246.75 126.179688 Z M 246.75 126.179688 " fill-opacity="1" fill-rule="nonzero"/></g><path fill="#231f20" d="M 189.011719 124.492188 C 187.710938 124.332031 186.394531 124.339844 185.097656 124.519531 C 185.035156 124.496094 184.96875 124.492188 184.90625 124.5 C 184.839844 124.511719 184.777344 124.535156 184.722656 124.574219 C 184.671875 124.613281 184.625 124.664062 184.597656 124.722656 C 184.566406 124.785156 184.550781 124.851562 184.550781 124.917969 C 184.550781 124.984375 184.566406 125.050781 184.597656 125.109375 C 184.625 125.171875 184.671875 125.222656 184.722656 125.261719 C 184.777344 125.300781 184.839844 125.324219 184.90625 125.335938 C 184.96875 125.34375 185.035156 125.339844 185.097656 125.316406 C 186.386719 125.40625 187.675781 125.398438 188.960938 125.289062 C 189.023438 125.316406 189.089844 125.328125 189.152344 125.320312 C 189.21875 125.316406 189.28125 125.292969 189.335938 125.257812 C 189.394531 125.222656 189.441406 125.175781 189.472656 125.117188 C 189.507812 125.058594 189.527344 124.996094 189.53125 124.929688 C 189.535156 124.859375 189.523438 124.792969 189.496094 124.734375 C 189.472656 124.671875 189.429688 124.617188 189.378906 124.574219 C 189.328125 124.53125 189.269531 124.503906 189.207031 124.488281 C 189.140625 124.476562 189.074219 124.476562 189.011719 124.492188 Z M 189.011719 124.492188 " fill-opacity="1" fill-rule="nonzero"/><g clip-path="url(#b077132580)"><g clip-path="url(#8b8bcc4efa)"><g clip-path="url(#b6c368e251)"><g clip-path="url(#107b7801af)"><path fill="#231f20" d="M 249.070312 231.324219 C 249.078125 231.445312 249.039062 231.5625 248.964844 231.652344 C 248.894531 231.746094 248.789062 231.804688 248.675781 231.820312 C 218.011719 235.648438 186.96875 237.675781 156.074219 238.601562 C 137.667969 239.074219 118.882812 238.097656 100.652344 235.320312 C 100.519531 235.300781 100.398438 235.226562 100.3125 235.121094 C 100.226562 235.011719 100.179688 234.878906 100.183594 234.738281 C 100.183594 234.675781 100.207031 234.621094 100.25 234.578125 C 100.289062 234.539062 100.34375 234.515625 100.402344 234.515625 C 149.875 234.636719 199.429688 235.390625 248.777344 231.046875 C 248.8125 231.042969 248.847656 231.046875 248.882812 231.058594 C 248.917969 231.070312 248.949219 231.089844 248.976562 231.113281 C 249.003906 231.136719 249.027344 231.167969 249.042969 231.203125 C 249.058594 231.234375 249.066406 231.273438 249.070312 231.3125 Z M 249.070312 231.324219 " fill-opacity="1" fill-rule="nonzero"/></g></g></g></g><g clip-path="url(#797a838f7a)"><g clip-path="url(#cc874cec93)"><g clip-path="url(#137ecce371)"><g clip-path="url(#ca27759ed3)"><path fill="#231f20" d="M 229.949219 228.121094 C 214.566406 230.320312 198.921875 231.242188 183.402344 230.164062 C 182.898438 230.128906 182.5 229.71875 183.554688 229.691406 C 198.828125 229.332031 214.566406 228.589844 229.828125 227.675781 C 230.792969 227.625 230.390625 228.0625 229.949219 228.121094 Z M 229.949219 228.121094 " fill-opacity="1" fill-rule="nonzero"/></g></g></g></g><g clip-path="url(#72a6c65cb9)"><g clip-path="url(#550544a206)"><g clip-path="url(#ad4d18528e)"><g clip-path="url(#743e0d3538)"><path fill="#231f20" d="M 180.796875 230.476562 C 179.691406 230.636719 178.570312 230.652344 177.460938 230.515625 C 177.410156 230.535156 177.351562 230.542969 177.296875 230.535156 C 177.242188 230.527344 177.1875 230.507812 177.140625 230.472656 C 177.09375 230.441406 177.058594 230.398438 177.03125 230.347656 C 177.003906 230.296875 176.988281 230.238281 176.988281 230.179688 C 176.988281 230.121094 177 230.0625 177.023438 230.011719 C 177.050781 229.960938 177.085938 229.914062 177.132812 229.878906 C 177.175781 229.84375 177.226562 229.820312 177.285156 229.8125 C 177.339844 229.804688 177.394531 229.808594 177.449219 229.824219 C 178.542969 229.726562 179.644531 229.714844 180.742188 229.789062 C 180.792969 229.765625 180.847656 229.753906 180.902344 229.757812 C 180.960938 229.761719 181.011719 229.78125 181.0625 229.808594 C 181.109375 229.839844 181.148438 229.882812 181.179688 229.929688 C 181.207031 229.980469 181.226562 230.035156 181.230469 230.09375 C 181.234375 230.152344 181.226562 230.210938 181.207031 230.261719 C 181.183594 230.316406 181.152344 230.363281 181.109375 230.402344 C 181.066406 230.441406 181.015625 230.464844 180.960938 230.480469 C 180.90625 230.492188 180.847656 230.492188 180.796875 230.476562 Z M 180.796875 230.476562 " fill-opacity="1" fill-rule="nonzero"/></g></g></g></g><g clip-path="url(#c3467721b5)"><g clip-path="url(#d33950d550)"><g clip-path="url(#5935dfe019)"><g clip-path="url(#c0a977658c)"><path fill="#000000" d="M 240.296875 174.914062 L 239.914062 174.898438 C 238.863281 174.851562 237.71875 174.839844 236.476562 174.859375 C 229.617188 175.144531 220.226562 175.382812 208.308594 175.570312 C 185.488281 175.925781 169.34375 176.136719 159.878906 176.195312 C 155.785156 176.203125 150.683594 176.148438 144.570312 176.027344 C 141.445312 175.945312 134.828125 175.710938 124.714844 175.328125 L 116.988281 175.109375 C 114.222656 175.0625 111.621094 175.058594 109.179688 175.09375 C 108.347656 175.09375 106.539062 175.167969 103.746094 175.3125 L 101.96875 175.703125 L 101.28125 176.121094 L 101.980469 176.589844 L 103.671875 177.023438 C 103.824219 177.054688 104.039062 177.078125 104.3125 177.09375 L 106.183594 177.125 C 108.292969 177.210938 109.597656 177.253906 110.105469 177.253906 L 115.503906 177.230469 L 120.527344 177.316406 L 127.207031 177.535156 L 141.164062 178.085938 L 144.882812 178.210938 C 147.25 178.292969 151.546875 178.363281 157.773438 178.421875 C 159.871094 178.429688 163.371094 178.410156 168.265625 178.363281 L 217.921875 177.796875 L 235.074219 177.675781 C 241.507812 177.636719 245.449219 177.230469 246.894531 176.460938 C 247.511719 176.082031 247.53125 175.789062 246.957031 175.582031 L 246.632812 175.507812 C 246.367188 175.46875 246.089844 175.457031 245.804688 175.464844 C 245.269531 175.367188 244.410156 175.253906 243.226562 175.128906 C 242.40625 175.042969 241.429688 174.96875 240.296875 174.914062 " fill-opacity="1" fill-rule="nonzero"/></g></g></g></g><g clip-path="url(#09a5db2613)"><g clip-path="url(#924663a1f2)"><g clip-path="url(#f65a05fb10)"><g clip-path="url(#8c48e413f6)"><path fill="#000000" d="M 220.351562 172.804688 L 220.28125 172.800781 C 219.964844 172.792969 219.648438 172.796875 219.339844 172.808594 C 217.925781 172.695312 216.390625 172.609375 214.734375 172.554688 C 213.632812 172.519531 212.46875 172.503906 211.234375 172.515625 L 209.394531 172.5625 C 203.097656 172.828125 198.597656 172.996094 195.898438 173.066406 C 190.308594 173.214844 185.261719 173.320312 180.75 173.386719 C 174.203125 173.460938 167.203125 173.511719 159.742188 173.535156 C 155.621094 173.554688 149.222656 173.519531 140.542969 173.433594 C 138.304688 173.429688 136.9375 173.4375 136.433594 173.453125 C 135.019531 173.46875 134.152344 173.519531 133.828125 173.605469 C 133.5 173.65625 133.207031 173.8125 132.957031 174.070312 C 132.71875 174.148438 132.515625 174.171875 132.339844 174.152344 C 134.015625 174.28125 135.726562 174.386719 137.476562 174.457031 C 139.328125 174.550781 142.277344 174.613281 146.324219 174.644531 C 158.140625 174.738281 168.777344 174.804688 178.222656 174.84375 C 183.386719 174.875 188.257812 174.835938 192.835938 174.730469 C 194.402344 174.699219 198.367188 174.609375 204.738281 174.457031 L 208.230469 174.363281 C 210.957031 174.265625 212.863281 174.179688 213.949219 174.097656 C 216.144531 173.96875 218.164062 173.742188 220.007812 173.414062 C 221.347656 173.140625 221.464844 172.9375 220.351562 172.804688 " fill-opacity="1" fill-rule="nonzero"/></g></g></g></g></svg>