<svg xmlns="http://www.w3.org/2000/svg" xmlns:xlink="http://www.w3.org/1999/xlink" width="500" zoomAndPan="magnify" viewBox="0 0 375 374.999991" height="500" preserveAspectRatio="xMidYMid meet" version="1.0"><defs><g/><clipPath id="e5548b4f79"><path d="M 72 118 L 285 118 L 285 248.511719 L 72 248.511719 Z M 72 118 " clip-rule="nonzero"/></clipPath><clipPath id="ebb245d01c"><path d="M 134 37.5 L 223 37.5 L 223 76 L 134 76 Z M 134 37.5 " clip-rule="nonzero"/></clipPath><clipPath id="10aadf3dfb"><path d="M 112.261719 101.703125 L 243 101.703125 L 243 107 L 112.261719 107 Z M 112.261719 101.703125 " clip-rule="nonzero"/></clipPath><clipPath id="be5c3ea74f"><path d="M 184 108 L 227 108 L 227 110.078125 L 184 110.078125 Z M 184 108 " clip-rule="nonzero"/></clipPath><clipPath id="462c9cb42b"><path d="M 117 187 L 228 187 L 228 194 L 117 194 Z M 117 187 " clip-rule="nonzero"/></clipPath><clipPath id="b0e129ef0a"><path d="M 228.316406 192.1875 L 116.6875 194.21875 L 116.554688 186.960938 L 228.183594 184.929688 Z M 228.316406 192.1875 " clip-rule="nonzero"/></clipPath><clipPath id="e70585e885"><path d="M 228.316406 192.1875 L 116.6875 194.21875 L 116.554688 186.960938 L 228.183594 184.929688 Z M 228.316406 192.1875 " clip-rule="nonzero"/></clipPath><clipPath id="434074a056"><path d="M 228.316406 192.1875 L 116.6875 194.21875 L 116.554688 186.960938 L 228.183594 184.929688 Z M 228.316406 192.1875 " clip-rule="nonzero"/></clipPath><clipPath id="7bd44cace2"><path d="M 178 185 L 214 185 L 214 188 L 178 188 Z M 178 185 " clip-rule="nonzero"/></clipPath><clipPath id="2db28a6348"><path d="M 228.316406 192.1875 L 116.6875 194.21875 L 116.554688 186.960938 L 228.183594 184.929688 Z M 228.316406 192.1875 " clip-rule="nonzero"/></clipPath><clipPath id="02e2917971"><path d="M 228.316406 192.1875 L 116.6875 194.21875 L 116.554688 186.960938 L 228.183594 184.929688 Z M 228.316406 192.1875 " clip-rule="nonzero"/></clipPath><clipPath id="83fc4d1bdc"><path d="M 228.316406 192.1875 L 116.6875 194.21875 L 116.554688 186.960938 L 228.183594 184.929688 Z M 228.316406 192.1875 " clip-rule="nonzero"/></clipPath><clipPath id="c063437ec6"><path d="M 174 186 L 178 186 L 178 188 L 174 188 Z M 174 186 " clip-rule="nonzero"/></clipPath><clipPath id="04cdd01b05"><path d="M 228.316406 192.1875 L 116.6875 194.21875 L 116.554688 186.960938 L 228.183594 184.929688 Z M 228.316406 192.1875 " clip-rule="nonzero"/></clipPath><clipPath id="f636760c65"><path d="M 228.316406 192.1875 L 116.6875 194.21875 L 116.554688 186.960938 L 228.183594 184.929688 Z M 228.316406 192.1875 " clip-rule="nonzero"/></clipPath><clipPath id="72d8b7a23c"><path d="M 228.316406 192.1875 L 116.6875 194.21875 L 116.554688 186.960938 L 228.183594 184.929688 Z M 228.316406 192.1875 " clip-rule="nonzero"/></clipPath><clipPath id="7b330d6929"><path d="M 117 145 L 227 145 L 227 149 L 117 149 Z M 117 145 " clip-rule="nonzero"/></clipPath><clipPath id="15b338325e"><path d="M 116.785156 140.148438 L 228.308594 145.378906 L 227.96875 152.628906 L 116.445312 147.394531 Z M 116.785156 140.148438 " clip-rule="nonzero"/></clipPath><clipPath id="f424f43f86"><path d="M 116.785156 140.148438 L 228.308594 145.378906 L 227.96875 152.628906 L 116.445312 147.394531 Z M 116.785156 140.148438 " clip-rule="nonzero"/></clipPath><clipPath id="3f149f1ad3"><path d="M 116.785156 140.148438 L 228.308594 145.378906 L 227.96875 152.628906 L 116.445312 147.394531 Z M 116.785156 140.148438 " clip-rule="nonzero"/></clipPath><clipPath id="ee73b490d2"><path d="M 140 144 L 208 144 L 208 146 L 140 146 Z M 140 144 " clip-rule="nonzero"/></clipPath><clipPath id="4d7452e33d"><path d="M 116.785156 140.148438 L 228.308594 145.378906 L 227.96875 152.628906 L 116.445312 147.394531 Z M 116.785156 140.148438 " clip-rule="nonzero"/></clipPath><clipPath id="cf8524ae76"><path d="M 116.785156 140.148438 L 228.308594 145.378906 L 227.96875 152.628906 L 116.445312 147.394531 Z M 116.785156 140.148438 " clip-rule="nonzero"/></clipPath><clipPath id="68888b9e16"><path d="M 116.785156 140.148438 L 228.308594 145.378906 L 227.96875 152.628906 L 116.445312 147.394531 Z M 116.785156 140.148438 " clip-rule="nonzero"/></clipPath></defs><path fill="#000000" d="M 284.246094 113.507812 C 284.246094 116.792969 284.148438 118.503906 284.148438 118.503906 C 284.148438 118.503906 284.148438 116.832031 283.933594 113.703125 C 283.792969 111.363281 283.617188 108.175781 283.339844 104.238281 C 283.007812 99.675781 282.535156 94.085938 281.828125 87.652344 C 281.453125 84.425781 281.039062 80.984375 280.585938 77.34375 C 280.226562 73.5625 279.539062 69.84375 278.519531 66.1875 C 277.960938 64.324219 277.074219 62.632812 275.863281 61.109375 L 275.433594 60.578125 C 275.28125 60.484375 275.144531 60.371094 275.019531 60.246094 C 274.671875 60.015625 274.304688 59.824219 273.917969 59.675781 C 273.007812 59.316406 272.070312 59.074219 271.101562 58.945312 C 266.65625 58.460938 262.210938 58.460938 257.761719 58.945312 C 255.421875 59.125 253.039062 59.378906 250.601562 59.636719 L 246.785156 59.636719 C 245.5625 59.636719 244.324219 59.753906 243.085938 59.851562 C 238.105469 60.207031 232.972656 60.796875 227.679688 61.347656 C 225.023438 61.621094 222.328125 61.878906 219.574219 62.074219 C 216.816406 62.273438 214.082031 62.3125 211.308594 62.449219 L 194.328125 63.078125 C 182.816406 63.628906 170.914062 63.492188 158.8125 63.292969 C 133.386719 62.796875 108.050781 60.992188 82.808594 57.882812 C 81.582031 57.683594 80.347656 57.5625 79.109375 57.511719 C 78.164062 57.511719 78.046875 57.667969 77.691406 58.21875 C 77.074219 60.453125 76.753906 62.730469 76.726562 65.046875 C 76.3125 70.121094 75.941406 74.980469 75.566406 79.625 C 74.859375 88.914062 74.300781 97.339844 73.894531 104.910156 C 73.085938 119.960938 72.773438 131.53125 72.691406 139.300781 C 72.613281 147.074219 72.457031 151.109375 72.457031 151.109375 C 72.457031 151.109375 72.222656 146.347656 71.808594 137.589844 C 71.394531 128.835938 71.078125 116.203125 71.238281 100.167969 C 71.355469 92.199219 71.628906 83.441406 72.0625 73.980469 C 72.183594 71.617188 72.300781 69.21875 72.417969 66.757812 C 72.417969 65.539062 72.535156 64.296875 72.613281 63.058594 C 72.691406 61.820312 72.714844 60.636719 72.871094 59.125 C 72.941406 58.214844 73.175781 57.355469 73.574219 56.535156 C 73.972656 55.71875 74.503906 55 75.171875 54.382812 C 76.015625 53.738281 76.96875 53.355469 78.027344 53.242188 C 78.851562 53.144531 79.679688 53.144531 80.503906 53.242188 L 88.375 54.027344 C 109.722656 55.996094 133.511719 57.609375 158.933594 58.160156 C 171.722656 58.414062 184.117188 58.535156 195.960938 58.160156 L 213.355469 57.785156 C 219.0625 57.785156 224.433594 57.3125 229.824219 56.898438 C 235.214844 56.488281 240.449219 56.015625 245.5625 55.898438 C 246.84375 55.898438 248.121094 55.898438 249.5 55.898438 C 249.75 55.917969 249.996094 55.917969 250.246094 55.898438 L 251.171875 55.898438 L 253.019531 55.777344 C 255.5 55.207031 257.941406 55.207031 260.339844 55.070312 C 262.742188 54.933594 265.121094 55.070312 267.464844 55.1875 C 269.863281 55.304688 272.203125 55.738281 274.488281 56.488281 C 275.785156 56.9375 276.90625 57.65625 277.851562 58.652344 C 278.621094 59.558594 279.277344 60.542969 279.820312 61.601562 C 280.757812 63.566406 281.414062 65.617188 281.785156 67.761719 C 282.4375 71.527344 282.867188 75.316406 283.066406 79.132812 C 283.339844 82.675781 283.578125 86.039062 283.753906 89.148438 C 284.109375 95.40625 284.246094 100.757812 284.285156 105.105469 C 284.265625 108.550781 284.265625 111.363281 284.246094 113.507812 Z M 284.246094 113.507812 " fill-opacity="1" fill-rule="nonzero"/><g clip-path="url(#e5548b4f79)"><path fill="#000000" d="M 284.441406 133.496094 C 284.441406 143.179688 284.128906 157.285156 282.476562 174.816406 C 281.734375 184.515625 280.421875 194.136719 278.539062 203.679688 C 277.371094 209.136719 275.589844 214.382812 273.1875 219.421875 C 271.863281 222.101562 270.308594 224.636719 268.527344 227.035156 C 266.617188 229.507812 264.453125 231.730469 262.03125 233.707031 C 256.84375 237.699219 251.058594 240.425781 244.679688 241.890625 C 238.285156 243.367188 231.808594 244.308594 225.257812 244.703125 C 212.175781 245.746094 198.519531 246.671875 184.390625 247.183594 C 155.960938 248.402344 129.300781 248.421875 105.511719 247.773438 C 99.609375 247.597656 93.707031 247.402344 88.160156 247.164062 C 86.675781 247.128906 85.199219 247.003906 83.730469 246.789062 C 81.988281 246.554688 80.445312 245.863281 79.109375 244.722656 C 77.878906 243.4375 77.132812 241.917969 76.863281 240.160156 C 76.570312 238.644531 76.511719 237.347656 76.371094 236.046875 C 75.371094 225.621094 74.640625 215.976562 74.089844 207.203125 C 72.988281 189.652344 72.652344 175.722656 72.515625 166.003906 C 72.378906 156.28125 72.515625 151.148438 72.515625 151.148438 C 72.515625 151.148438 72.851562 156.792969 73.460938 166.886719 C 74.070312 176.980469 75.171875 191.601562 77.023438 209.464844 C 77.964844 218.359375 78.988281 228.195312 80.445312 238.488281 C 80.546875 239.53125 80.878906 240.496094 81.449219 241.378906 C 82.027344 242.109375 82.777344 242.554688 83.691406 242.71875 C 86.265625 243.070312 88.847656 243.210938 91.445312 243.128906 L 108.621094 243.289062 C 132.074219 243.289062 157.808594 242.953125 184.332031 241.8125 C 200.074219 241.125 214.988281 240.277344 228.898438 239.253906 C 231.082031 239.078125 233.226562 238.859375 235.3125 238.585938 L 236.199219 238.46875 C 240.320312 237.957031 244.359375 237.074219 248.320312 235.8125 C 251.214844 234.863281 253.960938 233.597656 256.5625 232.015625 C 259.039062 230.476562 261.28125 228.652344 263.292969 226.542969 C 265.203125 224.449219 266.886719 222.1875 268.347656 219.757812 C 269.726562 217.367188 270.921875 214.886719 271.929688 212.320312 C 273.824219 207.378906 275.265625 202.308594 276.257812 197.109375 C 277.261719 192.132812 277.949219 187.269531 278.597656 182.648438 C 279.25 178.023438 279.820312 173.65625 280.332031 169.503906 C 282.140625 154.589844 282.988281 142.765625 283.480469 134.285156 C 283.480469 133.339844 283.578125 132.433594 283.617188 131.570312 C 284.03125 122.972656 284.128906 118.542969 284.128906 118.542969 C 284.128906 118.542969 284.128906 119.863281 284.246094 122.480469 C 284.246094 123.382812 284.246094 124.445312 284.246094 125.628906 C 284.402344 127.714844 284.441406 130.371094 284.441406 133.496094 Z M 284.441406 133.496094 " fill-opacity="1" fill-rule="nonzero"/></g><path fill="#74edf1" d="M 283.933594 113.742188 C 283.933594 114.53125 283.753906 115.554688 283.636719 116.792969 C 283.636719 118.484375 283.203125 120.570312 282.808594 123.050781 C 282.613281 124.289062 282.476562 125.628906 282.160156 126.984375 C 281.847656 128.34375 281.53125 129.917969 281.175781 131.511719 C 279.371094 139.34375 276.75 146.894531 273.308594 154.15625 C 268.5 163.996094 262.441406 172.988281 255.125 181.132812 C 250.925781 185.804688 246.414062 190.152344 241.589844 194.175781 C 239.328125 196.144531 236.90625 197.875 234.625 199.648438 C 233.523438 200.550781 232.300781 201.261719 231.160156 202.066406 L 228.328125 204.035156 C 227.324219 204.722656 226.359375 205.375 225.355469 206.003906 L 228.644531 208.5625 C 229.175781 208.992188 229.644531 209.425781 230.097656 209.859375 L 230.847656 210.585938 C 231.824219 211.554688 232.75 212.574219 233.621094 213.636719 C 235.246094 215.605469 236.644531 217.722656 237.8125 219.992188 C 238.875 221.929688 239.425781 224 239.464844 226.210938 C 239.46875 228.445312 239.109375 230.625 238.390625 232.742188 C 237.675781 234.863281 236.636719 236.808594 235.273438 238.585938 C 233.1875 238.859375 231.042969 239.078125 228.859375 239.253906 C 214.949219 240.277344 200.035156 241.125 184.292969 241.8125 C 157.671875 242.953125 132.035156 243.367188 108.582031 243.289062 L 91.40625 243.128906 C 88.808594 243.210938 86.226562 243.070312 83.652344 242.71875 C 82.738281 242.554688 81.988281 242.109375 81.410156 241.378906 C 80.839844 240.496094 80.507812 239.53125 80.40625 238.488281 C 79.109375 228.195312 77.964844 218.359375 77.023438 209.464844 C 75.171875 191.601562 74.089844 177 73.402344 166.867188 C 72.714844 156.734375 72.457031 151.128906 72.457031 151.128906 C 72.457031 151.128906 72.457031 147.191406 72.691406 139.320312 C 72.929688 131.453125 73.085938 119.980469 73.894531 104.890625 C 74.300781 97.332031 74.859375 88.90625 75.566406 79.605469 C 75.941406 74.960938 76.3125 70.101562 76.726562 65.027344 C 76.75 62.722656 77.066406 60.460938 77.671875 58.238281 C 78.027344 57.6875 78.144531 57.609375 79.089844 57.53125 C 80.335938 57.578125 81.574219 57.703125 82.808594 57.902344 C 108.074219 61.066406 133.433594 62.925781 158.894531 63.472656 C 170.992188 63.667969 182.898438 63.804688 194.40625 63.253906 L 211.386719 62.625 C 214.160156 62.488281 216.898438 62.449219 219.652344 62.253906 C 222.40625 62.054688 225.101562 61.800781 227.757812 61.523438 C 233.050781 60.972656 238.1875 60.382812 243.164062 60.027344 C 244.402344 60.027344 245.644531 59.871094 246.863281 59.8125 L 250.777344 59.8125 C 253.21875 59.554688 255.597656 59.300781 257.941406 59.125 C 262.386719 58.640625 266.832031 58.640625 271.28125 59.125 C 272.246094 59.253906 273.183594 59.496094 274.09375 59.851562 C 274.480469 60 274.847656 60.191406 275.195312 60.421875 C 275.320312 60.550781 275.457031 60.660156 275.609375 60.757812 L 275.863281 61.109375 C 277.042969 62.632812 277.902344 64.320312 278.441406 66.167969 C 279.460938 69.824219 280.148438 73.542969 280.507812 77.324219 C 280.960938 80.964844 281.375 84.40625 281.746094 87.632812 C 282.457031 94.066406 282.929688 99.65625 283.261719 104.21875 C 283.617188 108.214844 283.734375 111.402344 283.933594 113.742188 Z M 283.933594 113.742188 " fill-opacity="1" fill-rule="nonzero"/><path fill="#0c95ad" d="M 283.5 134.285156 C 283.007812 142.765625 282.160156 154.589844 280.351562 169.503906 C 279.839844 173.65625 279.289062 178.042969 278.621094 182.648438 C 277.949219 187.25 277.28125 192.132812 276.277344 197.109375 C 275.289062 202.308594 273.84375 207.378906 271.949219 212.320312 C 270.929688 214.886719 269.722656 217.367188 268.328125 219.757812 C 266.867188 222.1875 265.183594 224.449219 263.273438 226.542969 C 261.261719 228.652344 259.019531 230.476562 256.542969 232.015625 C 253.949219 233.597656 251.207031 234.863281 248.320312 235.8125 C 244.367188 237.070312 240.332031 237.957031 236.21875 238.46875 C 237.730469 236.839844 238.957031 235.015625 239.890625 233 C 240.828125 230.984375 241.425781 228.871094 241.6875 226.664062 C 241.867188 225.429688 241.867188 224.195312 241.6875 222.964844 C 241.496094 221.652344 241.160156 220.382812 240.683594 219.144531 C 239.675781 216.488281 238.367188 213.988281 236.75 211.648438 C 235.878906 210.386719 234.941406 209.171875 233.9375 208.007812 C 233.683594 207.695312 233.414062 207.390625 233.128906 207.105469 C 233.042969 207.011719 232.964844 206.914062 232.894531 206.808594 L 232.578125 206.4375 C 232.710938 206.359375 232.847656 206.292969 232.992188 206.238281 L 233.167969 206.238281 L 233.601562 206.003906 C 234.800781 205.253906 236.082031 204.585938 237.28125 203.71875 C 239.679688 202.027344 242.277344 200.414062 244.699219 198.40625 C 249.980469 194.34375 254.847656 189.832031 259.296875 184.871094 C 266.425781 176.910156 272.164062 168.050781 276.515625 158.289062 C 279.882812 150.589844 282.210938 142.589844 283.5 134.285156 Z M 283.5 134.285156 " fill-opacity="1" fill-rule="nonzero"/><path fill="#000000" d="M 284.363281 125.527344 C 284.226562 128.085938 283.953125 130.941406 283.539062 134.066406 C 283.539062 134.066406 283.539062 134.207031 283.539062 134.285156 C 282.21875 142.566406 279.867188 150.542969 276.472656 158.210938 C 272.125 167.972656 266.386719 176.832031 259.257812 184.792969 C 254.808594 189.753906 249.941406 194.265625 244.660156 198.328125 C 242.238281 200.296875 239.640625 201.949219 237.242188 203.640625 C 236.042969 204.507812 234.761719 205.175781 233.5625 205.925781 L 233.128906 206.160156 L 232.953125 206.160156 C 232.808594 206.214844 232.671875 206.28125 232.539062 206.355469 L 232.855469 206.730469 C 232.925781 206.835938 233.003906 206.933594 233.089844 207.027344 C 233.375 207.3125 233.644531 207.613281 233.894531 207.929688 C 234.902344 209.09375 235.839844 210.304688 236.710938 211.570312 C 238.328125 213.910156 239.636719 216.410156 240.644531 219.066406 C 241.121094 220.300781 241.457031 221.574219 241.648438 222.882812 C 241.828125 224.117188 241.828125 225.351562 241.648438 226.582031 C 241.386719 228.792969 240.785156 230.902344 239.851562 232.921875 C 238.917969 234.9375 237.691406 236.761719 236.179688 238.390625 C 235.785156 238.800781 235.410156 239.175781 235.078125 239.492188 C 234.535156 239.988281 233.964844 240.445312 233.363281 240.867188 L 232.875 241.222656 L 233.304688 240.769531 C 233.851562 240.253906 234.355469 239.703125 234.820312 239.117188 L 235.292969 238.507812 C 236.65625 236.730469 237.695312 234.785156 238.410156 232.664062 C 239.128906 230.546875 239.488281 228.367188 239.484375 226.132812 C 239.445312 223.921875 238.894531 221.851562 237.832031 219.914062 C 236.664062 217.644531 235.265625 215.527344 233.640625 213.558594 C 232.769531 212.542969 231.851562 211.570312 230.886719 210.644531 L 230.136719 209.917969 C 229.6875 209.484375 229.214844 209.050781 228.683594 208.621094 L 225.355469 206.003906 C 226.261719 205.351562 227.324219 204.703125 228.328125 204.035156 L 231.160156 202.066406 C 232.300781 201.261719 233.523438 200.550781 234.625 199.648438 C 236.90625 197.875 239.328125 196.203125 241.589844 194.175781 C 246.414062 190.152344 250.925781 185.804688 255.125 181.132812 C 262.402344 173 268.429688 164.027344 273.207031 154.214844 C 276.652344 146.953125 279.273438 139.402344 281.078125 131.570312 C 281.433594 129.976562 281.765625 128.460938 282.0625 127.042969 C 282.359375 125.628906 282.515625 124.289062 282.710938 123.109375 C 283.105469 120.628906 283.441406 118.542969 283.539062 116.851562 C 283.65625 115.613281 283.753906 114.589844 283.832031 113.800781 C 283.953125 112.40625 284.03125 111.695312 284.03125 111.695312 C 284.03125 111.695312 284.03125 112.347656 284.148438 113.664062 C 284.148438 114.648438 284.226562 115.960938 284.382812 117.601562 C 284.5625 119.683594 284.542969 122.382812 284.363281 125.527344 Z M 284.363281 125.527344 " fill-opacity="1" fill-rule="nonzero"/><g clip-path="url(#ebb245d01c)"><path fill="#000000" d="M 216.304688 62.230469 C 216.222656 62.285156 216.160156 62.359375 216.113281 62.445312 C 216.066406 62.53125 216.042969 62.625 216.042969 62.722656 C 216.042969 62.824219 216.066406 62.917969 216.113281 63.003906 C 216.160156 63.089844 216.222656 63.160156 216.304688 63.214844 C 216.511719 63.316406 216.730469 63.386719 216.957031 63.433594 C 217.328125 63.570312 217.664062 63.6875 218.039062 63.785156 C 218.765625 64.042969 219.472656 64.257812 220.144531 64.457031 C 220.609375 64.484375 221.023438 64.648438 221.386719 64.945312 C 221.746094 65.242188 221.988281 65.617188 222.109375 66.070312 C 222.308594 66.933594 221.679688 67.625 221.207031 68.195312 L 220.105469 69.511719 L 218.136719 71.753906 L 214.871094 75.671875 C 215.125 75.316406 216.167969 73.703125 217.917969 71.222656 L 219.632812 68.746094 L 220.574219 67.40625 C 220.8125 67.074219 221.066406 66.660156 220.8125 66.246094 C 220.554688 65.832031 220.125 65.8125 219.652344 65.695312 L 217.566406 65.203125 L 216.40625 65.046875 C 215.859375 64.96875 215.355469 64.785156 214.890625 64.496094 C 214.660156 64.332031 214.472656 64.128906 214.332031 63.886719 C 214.1875 63.640625 214.101562 63.378906 214.070312 63.101562 C 214.042969 62.820312 214.070312 62.546875 214.15625 62.277344 C 214.246094 62.007812 214.382812 61.773438 214.574219 61.5625 C 215.65625 59.96875 216.816406 58.277344 218.058594 56.507812 L 219.925781 53.851562 C 220.261719 53.496094 220.144531 53.101562 219.769531 53.0625 L 215.261719 51.488281 L 214.042969 51.078125 L 213.15625 50.761719 C 212.785156 50.644531 212.445312 50.464844 212.136719 50.230469 C 211.851562 49.988281 211.625 49.695312 211.464844 49.359375 C 211.300781 49.019531 211.214844 48.664062 211.203125 48.289062 C 211.191406 47.914062 211.257812 47.554688 211.398438 47.207031 C 211.539062 46.859375 211.746094 46.554688 212.015625 46.296875 C 213.453125 44.898438 214.910156 43.421875 216.40625 41.945312 C 217.429688 40.941406 217.074219 41.277344 217.171875 41.160156 L 217.054688 41.160156 L 203.890625 42.085938 C 183.878906 43.34375 166.507812 43.933594 154.113281 44.503906 L 135.125 45.371094 L 134.710938 45.371094 C 136.402344 45.09375 143.839844 43.953125 154.878906 42.714844 C 167.492188 41.277344 184.863281 39.820312 203.675781 38.640625 L 218.292969 37.5 C 219.175781 37.445312 219.914062 37.738281 220.515625 38.386719 C 221.109375 39.035156 221.355469 39.796875 221.265625 40.667969 C 221.132812 41.546875 220.714844 42.257812 220.003906 42.792969 L 218.589844 44.109375 C 217.230469 45.410156 215.914062 46.609375 214.652344 47.808594 C 214.601562 47.84375 214.574219 47.894531 214.574219 47.957031 C 214.574219 48.019531 214.601562 48.070312 214.652344 48.105469 L 214.96875 48.222656 L 216.1875 48.695312 L 221.085938 50.664062 C 221.539062 50.828125 221.917969 51.101562 222.214844 51.480469 C 222.511719 51.859375 222.6875 52.289062 222.742188 52.769531 C 222.789062 53.238281 222.699219 53.675781 222.464844 54.085938 C 222.246094 54.46875 222.003906 54.835938 221.738281 55.1875 C 221.027344 56.054688 220.359375 56.878906 219.769531 57.726562 C 218.550781 59.359375 217.386719 60.835938 216.304688 62.230469 Z M 216.304688 62.230469 " fill-opacity="1" fill-rule="nonzero"/></g><path fill="#ffffff" d="M 220.496094 67.40625 L 219.554688 68.746094 L 217.839844 71.222656 C 216.089844 73.742188 215.046875 75.316406 214.792969 75.671875 C 208.574219 75.671875 180.476562 76.144531 146.4375 78.109375 L 141.105469 78.425781 C 141.304688 78.136719 141.523438 77.863281 141.753906 77.597656 L 142.226562 77.066406 C 142.433594 76.816406 142.65625 76.582031 142.894531 76.359375 C 143.3125 75.964844 143.585938 75.492188 143.714844 74.933594 C 143.84375 74.375 143.808594 73.828125 143.605469 73.289062 C 143.328125 72.285156 141.875 71.519531 141.636719 71.324219 L 138.765625 69.355469 C 136.992188 68.117188 135.320312 66.933594 133.6875 65.753906 C 133.511719 65.753906 133.375 65.441406 133.570312 65.339844 L 133.707031 65.339844 C 133.804688 65.339844 133.707031 65.339844 134.003906 65.203125 L 135.417969 64.789062 L 141.007812 63.078125 C 141.191406 63.035156 141.363281 62.972656 141.53125 62.890625 C 141.699219 62.804688 141.855469 62.699219 141.996094 62.578125 C 142.140625 62.457031 142.265625 62.320312 142.375 62.167969 C 142.484375 62.015625 142.574219 61.851562 142.640625 61.679688 C 142.710938 61.503906 142.757812 61.324219 142.785156 61.140625 C 142.8125 60.953125 142.816406 60.765625 142.796875 60.582031 C 142.777344 60.394531 142.734375 60.210938 142.671875 60.035156 C 142.609375 59.859375 142.527344 59.691406 142.425781 59.535156 C 141.964844 59.019531 141.460938 58.554688 140.910156 58.140625 L 139.808594 57.175781 C 138.332031 56.015625 136.972656 54.894531 135.65625 53.832031 L 128.964844 48.539062 C 128.6875 48.433594 128.480469 48.242188 128.351562 47.972656 C 128.222656 47.703125 128.203125 47.425781 128.296875 47.140625 C 128.433594 46.589844 129.003906 46.511719 129.4375 46.414062 L 132.09375 45.785156 C 133.019531 45.546875 134.199219 45.371094 135.027344 45.152344 L 154.011719 44.289062 C 166.390625 43.71875 183.78125 43.128906 203.792969 41.867188 L 216.957031 40.941406 L 217.074219 40.941406 C 217.074219 41.0625 217.328125 40.726562 216.304688 41.730469 C 214.8125 43.207031 213.355469 44.679688 211.917969 46.078125 C 211.648438 46.339844 211.441406 46.640625 211.300781 46.988281 C 211.160156 47.335938 211.09375 47.699219 211.105469 48.074219 C 211.117188 48.445312 211.203125 48.804688 211.367188 49.140625 C 211.527344 49.480469 211.75 49.769531 212.035156 50.015625 C 212.347656 50.25 212.6875 50.425781 213.058594 50.546875 L 213.945312 50.859375 L 215.164062 51.273438 L 219.671875 52.847656 C 220.042969 52.847656 220.164062 53.28125 219.828125 53.632812 L 217.960938 56.289062 C 216.71875 58.0625 215.558594 59.753906 214.476562 61.347656 C 214.269531 61.5625 214.117188 61.8125 214.023438 62.09375 C 213.929688 62.378906 213.902344 62.667969 213.941406 62.964844 C 213.976562 63.261719 214.078125 63.535156 214.242188 63.789062 C 214.40625 64.039062 214.613281 64.242188 214.871094 64.398438 C 215.335938 64.6875 215.839844 64.871094 216.386719 64.949219 L 217.46875 65.203125 L 219.554688 65.695312 C 220.023438 65.8125 220.496094 65.792969 220.714844 66.246094 C 220.929688 66.699219 220.773438 67.011719 220.496094 67.40625 Z M 220.496094 67.40625 " fill-opacity="1" fill-rule="nonzero"/><path fill="#000000" d="M 216.089844 75.652344 C 216.089844 75.652344 182.957031 79.46875 146.613281 81.554688 L 143.210938 81.75 L 141.558594 81.847656 L 140.160156 81.847656 C 139.667969 81.875 139.203125 81.777344 138.765625 81.554688 C 138.347656 81.351562 138 81.066406 137.722656 80.699219 C 137.441406 80.332031 137.257812 79.921875 137.171875 79.46875 C 137.089844 79.003906 137.117188 78.546875 137.246094 78.09375 C 137.378906 77.640625 137.601562 77.238281 137.917969 76.890625 L 138.664062 75.945312 L 139.175781 75.296875 L 139.75 74.6875 L 140.140625 74.253906 C 140.140625 74.253906 140.320312 74.351562 139.628906 73.839844 C 138.941406 73.328125 137.664062 72.425781 136.835938 71.714844 L 131.148438 67.40625 C 130.980469 67.289062 130.832031 67.152344 130.695312 66.996094 C 130.558594 66.84375 130.441406 66.675781 130.347656 66.492188 C 130.25 66.3125 130.175781 66.121094 130.121094 65.921875 C 130.070312 65.722656 130.042969 65.523438 130.039062 65.316406 C 130.03125 65.109375 130.050781 64.90625 130.09375 64.707031 C 130.136719 64.503906 130.203125 64.3125 130.289062 64.125 C 130.378906 63.941406 130.488281 63.769531 130.617188 63.605469 C 130.742188 63.445312 130.890625 63.304688 131.050781 63.175781 C 131.402344 62.9375 131.78125 62.769531 132.191406 62.664062 L 133.292969 62.351562 L 134.691406 61.996094 L 139.667969 60.757812 C 140.023438 60.757812 140.320312 60.324219 140.023438 60.085938 C 139.726562 59.851562 138.980469 59.125 138.371094 58.511719 L 134.4375 54.875 L 128.101562 48.972656 C 127.75 48.734375 127.511719 48.410156 127.386719 48.007812 C 127.261719 47.601562 127.273438 47.199219 127.429688 46.804688 C 127.621094 46.5 127.878906 46.261719 128.199219 46.097656 C 128.519531 45.933594 128.859375 45.859375 129.222656 45.882812 C 130.363281 45.722656 131.328125 45.605469 132.09375 45.46875 L 134.335938 45.210938 L 135.597656 45.210938 C 135.457031 45.210938 135.300781 45.210938 135.105469 45.210938 C 134.296875 45.371094 133.136719 45.605469 132.171875 45.84375 L 129.515625 46.472656 C 129.082031 46.472656 128.511719 46.648438 128.375 47.199219 C 128.304688 47.472656 128.335938 47.734375 128.460938 47.984375 C 128.589844 48.234375 128.785156 48.414062 129.042969 48.519531 L 135.734375 53.8125 C 137.050781 54.875 138.410156 55.996094 139.886719 57.15625 L 140.988281 58.042969 C 141.539062 58.457031 142.042969 58.921875 142.503906 59.4375 C 142.605469 59.59375 142.6875 59.761719 142.753906 59.9375 C 142.816406 60.113281 142.855469 60.296875 142.875 60.480469 C 142.894531 60.667969 142.890625 60.855469 142.863281 61.039062 C 142.839844 61.226562 142.789062 61.40625 142.722656 61.578125 C 142.652344 61.753906 142.5625 61.917969 142.453125 62.070312 C 142.34375 62.222656 142.21875 62.359375 142.074219 62.480469 C 141.933594 62.601562 141.777344 62.707031 141.609375 62.789062 C 141.445312 62.875 141.269531 62.9375 141.085938 62.980469 L 135.5 64.691406 L 134.003906 65.046875 C 133.6875 65.144531 133.804688 65.046875 133.707031 65.183594 L 133.570312 65.183594 C 133.375 65.28125 133.570312 65.578125 133.6875 65.597656 C 135.320312 66.777344 136.992188 67.957031 138.765625 69.199219 L 141.636719 71.164062 C 141.851562 71.402344 143.308594 72.167969 143.605469 73.132812 C 143.808594 73.667969 143.84375 74.214844 143.714844 74.773438 C 143.585938 75.332031 143.3125 75.808594 142.894531 76.203125 C 142.65625 76.421875 142.433594 76.660156 142.226562 76.910156 L 141.753906 77.441406 C 141.523438 77.703125 141.304688 77.980469 141.105469 78.269531 L 146.4375 77.953125 C 180.476562 75.984375 208.574219 75.574219 214.792969 75.511719 Z M 216.089844 75.652344 " fill-opacity="1" fill-rule="nonzero"/><g clip-path="url(#10aadf3dfb)"><path fill="#231f20" d="M 242.761719 106.621094 C 242.769531 106.519531 242.734375 106.417969 242.667969 106.339844 C 242.601562 106.261719 242.511719 106.214844 242.410156 106.203125 C 215.5625 103.394531 188.417969 102.140625 161.414062 101.828125 C 145.324219 101.707031 128.933594 102.839844 113.050781 105.511719 C 112.9375 105.53125 112.832031 105.59375 112.757812 105.6875 C 112.683594 105.78125 112.644531 105.898438 112.648438 106.019531 C 112.652344 106.070312 112.675781 106.117188 112.710938 106.152344 C 112.746094 106.1875 112.796875 106.207031 112.847656 106.203125 C 156.058594 105.328125 199.335938 103.90625 242.511719 106.867188 C 242.542969 106.867188 242.574219 106.863281 242.605469 106.851562 C 242.632812 106.84375 242.664062 106.824219 242.6875 106.804688 C 242.710938 106.78125 242.726562 106.757812 242.742188 106.726562 C 242.753906 106.699219 242.761719 106.667969 242.761719 106.632812 Z M 242.761719 106.621094 " fill-opacity="1" fill-rule="nonzero"/></g><g clip-path="url(#be5c3ea74f)"><path fill="#231f20" d="M 226.109375 109.671875 C 212.636719 108.023438 198.957031 107.476562 185.421875 108.644531 C 184.980469 108.683594 184.636719 109.039062 185.558594 109.046875 C 198.910156 109.121094 212.667969 109.507812 226.011719 110.054688 C 226.855469 110.085938 226.496094 109.714844 226.109375 109.671875 Z M 226.109375 109.671875 " fill-opacity="1" fill-rule="nonzero"/></g><path fill="#231f20" d="M 183.136719 108.417969 C 182.167969 108.296875 181.191406 108.300781 180.222656 108.433594 C 180.175781 108.417969 180.128906 108.414062 180.078125 108.421875 C 180.03125 108.429688 179.984375 108.445312 179.945312 108.476562 C 179.90625 108.503906 179.875 108.542969 179.851562 108.585938 C 179.828125 108.632812 179.816406 108.679688 179.816406 108.730469 C 179.816406 108.78125 179.828125 108.832031 179.851562 108.875 C 179.875 108.917969 179.90625 108.957031 179.945312 108.988281 C 179.984375 109.015625 180.03125 109.035156 180.078125 109.042969 C 180.128906 109.050781 180.175781 109.042969 180.222656 109.027344 C 181.179688 109.09375 182.144531 109.089844 183.101562 109.007812 C 183.144531 109.027344 183.195312 109.035156 183.242188 109.03125 C 183.292969 109.027344 183.339844 109.011719 183.378906 108.984375 C 183.421875 108.957031 183.457031 108.921875 183.480469 108.878906 C 183.503906 108.835938 183.519531 108.789062 183.523438 108.738281 C 183.527344 108.6875 183.519531 108.640625 183.5 108.59375 C 183.480469 108.546875 183.449219 108.507812 183.410156 108.476562 C 183.375 108.445312 183.328125 108.421875 183.28125 108.414062 C 183.234375 108.402344 183.183594 108.402344 183.136719 108.417969 Z M 183.136719 108.417969 " fill-opacity="1" fill-rule="nonzero"/><g clip-path="url(#462c9cb42b)"><g clip-path="url(#b0e129ef0a)"><g clip-path="url(#e70585e885)"><g clip-path="url(#434074a056)"><path fill="#231f20" d="M 227.839844 187.929688 C 227.84375 188.019531 227.816406 188.109375 227.761719 188.175781 C 227.707031 188.242188 227.628906 188.289062 227.542969 188.296875 C 204.722656 191.148438 181.617188 192.65625 158.621094 193.347656 C 144.921875 193.699219 130.941406 192.972656 117.371094 190.90625 C 117.269531 190.890625 117.179688 190.835938 117.117188 190.757812 C 117.050781 190.675781 117.019531 190.574219 117.019531 190.472656 C 117.023438 190.425781 117.039062 190.382812 117.070312 190.355469 C 117.101562 190.324219 117.140625 190.304688 117.183594 190.308594 C 154.007812 190.394531 190.890625 190.957031 227.621094 187.722656 C 227.648438 187.722656 227.671875 187.722656 227.699219 187.734375 C 227.726562 187.742188 227.75 187.753906 227.769531 187.773438 C 227.789062 187.792969 227.804688 187.816406 227.816406 187.839844 C 227.828125 187.863281 227.835938 187.890625 227.835938 187.921875 Z M 227.839844 187.929688 " fill-opacity="1" fill-rule="nonzero"/></g></g></g></g><g clip-path="url(#7bd44cace2)"><g clip-path="url(#2db28a6348)"><g clip-path="url(#02e2917971)"><g clip-path="url(#83fc4d1bdc)"><path fill="#231f20" d="M 213.605469 185.546875 C 202.15625 187.183594 190.511719 187.871094 178.964844 187.066406 C 178.585938 187.039062 178.289062 186.734375 179.074219 186.714844 C 190.445312 186.445312 202.15625 185.894531 213.515625 185.214844 C 214.234375 185.175781 213.933594 185.503906 213.605469 185.546875 Z M 213.605469 185.546875 " fill-opacity="1" fill-rule="nonzero"/></g></g></g></g><g clip-path="url(#c063437ec6)"><g clip-path="url(#04cdd01b05)"><g clip-path="url(#f636760c65)"><g clip-path="url(#72d8b7a23c)"><path fill="#231f20" d="M 177.019531 187.300781 C 176.199219 187.421875 175.363281 187.429688 174.539062 187.328125 C 174.5 187.34375 174.457031 187.347656 174.417969 187.34375 C 174.375 187.339844 174.335938 187.324219 174.300781 187.296875 C 174.269531 187.273438 174.238281 187.242188 174.21875 187.203125 C 174.199219 187.164062 174.1875 187.121094 174.1875 187.078125 C 174.1875 187.035156 174.195312 186.992188 174.214844 186.953125 C 174.234375 186.914062 174.261719 186.882812 174.292969 186.855469 C 174.328125 186.828125 174.367188 186.8125 174.40625 186.804688 C 174.449219 186.796875 174.492188 186.800781 174.53125 186.816406 C 175.34375 186.742188 176.164062 186.734375 176.980469 186.785156 C 177.019531 186.769531 177.058594 186.761719 177.101562 186.765625 C 177.144531 186.769531 177.183594 186.78125 177.21875 186.804688 C 177.253906 186.824219 177.285156 186.855469 177.308594 186.894531 C 177.328125 186.929688 177.34375 186.972656 177.34375 187.015625 C 177.347656 187.058594 177.34375 187.101562 177.328125 187.140625 C 177.308594 187.179688 177.285156 187.214844 177.253906 187.246094 C 177.222656 187.273438 177.183594 187.292969 177.144531 187.300781 C 177.105469 187.3125 177.0625 187.3125 177.019531 187.300781 Z M 177.019531 187.300781 " fill-opacity="1" fill-rule="nonzero"/></g></g></g></g><g clip-path="url(#7b330d6929)"><g clip-path="url(#15b338325e)"><g clip-path="url(#f424f43f86)"><g clip-path="url(#3f149f1ad3)"><path fill="#000000" d="M 221.308594 145.945312 L 221.023438 145.929688 C 220.242188 145.898438 219.390625 145.886719 218.464844 145.902344 C 213.359375 146.117188 206.371094 146.292969 197.5 146.433594 C 180.511719 146.699219 168.496094 146.851562 161.453125 146.898438 C 158.40625 146.90625 154.609375 146.863281 150.058594 146.773438 C 147.734375 146.710938 142.808594 146.539062 135.28125 146.253906 L 129.53125 146.089844 C 127.472656 146.054688 125.535156 146.050781 123.71875 146.078125 C 123.097656 146.078125 121.75 146.132812 119.675781 146.238281 L 118.351562 146.53125 L 117.839844 146.84375 L 118.359375 147.191406 L 119.617188 147.511719 C 119.730469 147.539062 119.890625 147.554688 120.097656 147.566406 L 121.488281 147.589844 C 123.054688 147.652344 124.027344 147.683594 124.40625 147.6875 L 128.425781 147.667969 L 132.164062 147.730469 L 137.136719 147.894531 L 147.523438 148.304688 L 150.292969 148.398438 C 152.054688 148.460938 155.253906 148.511719 159.886719 148.554688 C 161.449219 148.5625 164.050781 148.546875 167.695312 148.511719 L 204.652344 148.089844 L 217.421875 148 C 222.210938 147.96875 225.144531 147.667969 226.21875 147.09375 C 226.675781 146.8125 226.691406 146.597656 226.265625 146.441406 L 226.027344 146.386719 C 225.828125 146.359375 225.621094 146.347656 225.40625 146.355469 C 225.007812 146.28125 224.371094 146.195312 223.488281 146.101562 C 222.878906 146.039062 222.152344 145.984375 221.308594 145.945312 " fill-opacity="1" fill-rule="nonzero"/></g></g></g></g><g clip-path="url(#ee73b490d2)"><g clip-path="url(#4d7452e33d)"><g clip-path="url(#cf8524ae76)"><g clip-path="url(#68888b9e16)"><path fill="#000000" d="M 206.460938 144.375 L 206.410156 144.371094 C 206.175781 144.367188 205.941406 144.367188 205.710938 144.378906 C 204.65625 144.292969 203.515625 144.230469 202.28125 144.1875 C 201.464844 144.160156 200.59375 144.152344 199.675781 144.160156 L 198.308594 144.191406 C 193.621094 144.390625 190.273438 144.515625 188.261719 144.570312 C 184.101562 144.679688 180.34375 144.757812 176.988281 144.808594 C 172.117188 144.863281 166.902344 144.898438 161.351562 144.917969 C 158.285156 144.933594 153.519531 144.90625 147.058594 144.839844 C 145.394531 144.839844 144.375 144.84375 144.003906 144.859375 C 142.953125 144.871094 142.304688 144.90625 142.0625 144.972656 C 141.816406 145.007812 141.601562 145.125 141.414062 145.316406 C 141.238281 145.371094 141.085938 145.394531 140.957031 145.375 C 142.203125 145.472656 143.476562 145.550781 144.78125 145.605469 C 146.15625 145.671875 148.351562 145.71875 151.363281 145.746094 C 160.160156 145.8125 168.074219 145.863281 175.105469 145.890625 C 178.949219 145.914062 182.578125 145.886719 185.984375 145.804688 C 187.148438 145.785156 190.101562 145.714844 194.839844 145.601562 L 197.441406 145.53125 C 199.472656 145.460938 200.890625 145.398438 201.699219 145.335938 C 203.332031 145.238281 204.832031 145.070312 206.207031 144.828125 C 207.207031 144.625 207.289062 144.472656 206.460938 144.375 " fill-opacity="1" fill-rule="nonzero"/></g></g></g></g><g fill="#000000" fill-opacity="1"><g transform="translate(48.393149, 301.615351)"><g><path d="M -0.59375 -32.015625 C -0.945312 -31.953125 -1.25 -31.90625 -1.5 -31.875 C -1.757812 -31.851562 -1.972656 -31.84375 -2.140625 -31.84375 C -3.085938 -31.894531 -3.753906 -32.164062 -4.140625 -32.65625 C -4.535156 -33.144531 -4.734375 -33.960938 -4.734375 -35.109375 C -4.734375 -37.367188 -3.644531 -38.796875 -1.46875 -39.390625 C 0.457031 -39.835938 2.523438 -40.164062 4.734375 -40.375 C 6.941406 -40.582031 9.398438 -40.6875 12.109375 -40.6875 C 15.742188 -40.6875 19.351562 -40.335938 22.9375 -39.640625 C 26.53125 -38.941406 29.953125 -37.984375 33.203125 -36.765625 C 36.460938 -35.546875 39.488281 -34.101562 42.28125 -32.4375 C 45.070312 -30.78125 47.492188 -28.984375 49.546875 -27.046875 C 51.597656 -25.109375 53.203125 -23.066406 54.359375 -20.921875 C 55.523438 -18.785156 56.109375 -16.644531 56.109375 -14.5 C 56.109375 -12.320312 55.375 -10.25 53.90625 -8.28125 C 52.4375 -6.3125 50.457031 -4.570312 47.96875 -3.0625 C 45.488281 -1.550781 42.613281 -0.347656 39.34375 0.546875 C 36.070312 1.441406 32.648438 1.890625 29.078125 1.890625 C 26.234375 1.890625 23.257812 1.625 20.15625 1.09375 C 17.050781 0.5625 13.628906 -0.289062 9.890625 -1.46875 C 8.160156 -1.9375 7.296875 -3 7.296875 -4.65625 C 7.296875 -5.019531 7.378906 -5.351562 7.546875 -5.65625 C 7.710938 -5.96875 7.882812 -6.257812 8.0625 -6.53125 C 8.25 -6.8125 8.425781 -7.082031 8.59375 -7.34375 C 8.757812 -7.613281 8.84375 -7.890625 8.84375 -8.171875 C 8.84375 -9.765625 8.765625 -11.46875 8.609375 -13.28125 C 8.453125 -15.09375 8.238281 -16.90625 7.96875 -18.71875 C 7.707031 -20.539062 7.398438 -22.28125 7.046875 -23.9375 C 6.703125 -25.601562 6.347656 -27.078125 5.984375 -28.359375 C 5.628906 -29.648438 5.257812 -30.675781 4.875 -31.4375 C 4.5 -32.207031 4.160156 -32.59375 3.859375 -32.59375 C 3.378906 -32.59375 2.796875 -32.535156 2.109375 -32.421875 C 1.429688 -32.316406 0.53125 -32.179688 -0.59375 -32.015625 Z M 15.546875 -32.6875 C 14.734375 -32.6875 14.328125 -32.40625 14.328125 -31.84375 C 14.328125 -31.707031 14.367188 -31.46875 14.453125 -31.125 C 14.535156 -30.789062 14.660156 -30.265625 14.828125 -29.546875 C 15.078125 -28.367188 15.3125 -27.109375 15.53125 -25.765625 C 15.757812 -24.421875 15.984375 -22.914062 16.203125 -21.25 C 16.429688 -19.59375 16.648438 -17.738281 16.859375 -15.6875 C 17.066406 -13.632812 17.285156 -11.320312 17.515625 -8.75 C 17.546875 -8.332031 17.921875 -7.9375 18.640625 -7.5625 C 19.367188 -7.1875 20.332031 -6.851562 21.53125 -6.5625 C 22.738281 -6.269531 24.113281 -6.03125 25.65625 -5.84375 C 27.207031 -5.664062 28.8125 -5.578125 30.46875 -5.578125 C 32.644531 -5.578125 34.726562 -5.832031 36.71875 -6.34375 C 38.71875 -6.863281 40.476562 -7.554688 42 -8.421875 C 43.519531 -9.285156 44.734375 -10.289062 45.640625 -11.4375 C 46.554688 -12.582031 47.015625 -13.769531 47.015625 -15 C 47.015625 -17.039062 46.207031 -19.023438 44.59375 -20.953125 C 42.988281 -22.878906 40.773438 -24.628906 37.953125 -26.203125 C 35.140625 -27.785156 31.816406 -29.140625 27.984375 -30.265625 C 24.160156 -31.398438 20.015625 -32.207031 15.546875 -32.6875 Z M 15.546875 -32.6875 "/></g></g></g><g fill="#000000" fill-opacity="1"><g transform="translate(104.325351, 301.615351)"><g><path d="M 26.1875 -31.34375 C 25.15625 -31.34375 24.25 -31.066406 23.46875 -30.515625 C 22.6875 -29.972656 22.015625 -29.21875 21.453125 -28.25 C 20.890625 -27.289062 20.425781 -26.160156 20.0625 -24.859375 C 19.707031 -23.566406 19.414062 -22.148438 19.1875 -20.609375 C 18.96875 -19.078125 18.816406 -17.472656 18.734375 -15.796875 C 18.648438 -14.117188 18.609375 -12.429688 18.609375 -10.734375 C 18.609375 -8.492188 18.695312 -6.289062 18.875 -4.125 C 19.0625 -1.957031 19.15625 0.046875 19.15625 1.890625 C 19.15625 3.085938 18.707031 4.023438 17.8125 4.703125 C 16.914062 5.390625 15.644531 5.734375 14 5.734375 C 13.6875 5.734375 13.332031 5.707031 12.9375 5.65625 C 12.550781 5.601562 12.179688 5.488281 11.828125 5.3125 C 11.484375 5.144531 11.175781 4.914062 10.90625 4.625 C 10.644531 4.332031 10.5 3.9375 10.46875 3.4375 C 10.21875 0.976562 9.851562 -1.535156 9.375 -4.109375 C 8.90625 -6.679688 8.3125 -9.242188 7.59375 -11.796875 C 6.882812 -14.347656 6.035156 -16.878906 5.046875 -19.390625 C 4.054688 -21.910156 2.921875 -24.375 1.640625 -26.78125 C 1.410156 -27.195312 1.21875 -27.585938 1.0625 -27.953125 C 0.914062 -28.316406 0.84375 -28.664062 0.84375 -29 C 0.84375 -29.414062 1.03125 -29.867188 1.40625 -30.359375 C 1.78125 -30.847656 2.253906 -31.300781 2.828125 -31.71875 C 3.398438 -32.132812 4.023438 -32.472656 4.703125 -32.734375 C 5.390625 -33.003906 6.054688 -33.140625 6.703125 -33.140625 C 7.765625 -33.140625 8.703125 -32.40625 9.515625 -30.9375 C 10.328125 -29.476562 11.082031 -27.140625 11.78125 -23.921875 C 11.914062 -23.367188 12.023438 -22.976562 12.109375 -22.75 C 12.191406 -22.53125 12.300781 -22.421875 12.4375 -22.421875 C 12.75 -22.421875 12.945312 -22.894531 13.03125 -23.84375 C 13.363281 -26.5 13.9375 -28.78125 14.75 -30.6875 C 15.5625 -32.601562 16.570312 -34.179688 17.78125 -35.421875 C 19 -36.671875 20.394531 -37.585938 21.96875 -38.171875 C 23.550781 -38.753906 25.289062 -39.046875 27.1875 -39.046875 C 28.28125 -39.046875 29.382812 -38.945312 30.5 -38.75 C 31.625 -38.5625 32.628906 -38.269531 33.515625 -37.875 C 34.410156 -37.488281 35.132812 -37.015625 35.6875 -36.453125 C 36.25 -35.890625 36.53125 -35.257812 36.53125 -34.5625 C 36.53125 -34.0625 36.425781 -33.46875 36.21875 -32.78125 C 36.007812 -32.101562 35.738281 -31.445312 35.40625 -30.8125 C 35.070312 -30.1875 34.6875 -29.65625 34.25 -29.21875 C 33.820312 -28.789062 33.382812 -28.578125 32.9375 -28.578125 C 32.4375 -28.578125 31.945312 -28.722656 31.46875 -29.015625 C 30.988281 -29.304688 30.476562 -29.617188 29.9375 -29.953125 C 29.394531 -30.296875 28.820312 -30.613281 28.21875 -30.90625 C 27.613281 -31.195312 26.9375 -31.34375 26.1875 -31.34375 Z M 26.1875 -31.34375 "/></g></g></g><g fill="#000000" fill-opacity="1"><g transform="translate(134.70052, 301.615351)"><g><path d="M 29.796875 -36.625 C 31.328125 -36.625 32.804688 -36.382812 34.234375 -35.90625 C 35.660156 -35.4375 36.914062 -34.78125 38 -33.9375 C 39.09375 -33.101562 39.96875 -32.097656 40.625 -30.921875 C 41.28125 -29.742188 41.609375 -28.445312 41.609375 -27.03125 C 41.609375 -26.4375 41.472656 -25.867188 41.203125 -25.328125 C 40.941406 -24.785156 40.585938 -24.3125 40.140625 -23.90625 C 39.691406 -23.5 39.179688 -23.175781 38.609375 -22.9375 C 38.035156 -22.695312 37.441406 -22.578125 36.828125 -22.578125 C 36.773438 -22.578125 36.726562 -22.570312 36.6875 -22.5625 C 36.644531 -22.550781 36.59375 -22.546875 36.53125 -22.546875 C 36.476562 -22.515625 36.425781 -22.5 36.375 -22.5 L 36.53125 -19.15625 C 36.644531 -15.15625 37.210938 -12.234375 38.234375 -10.390625 C 39.253906 -8.546875 40.585938 -7.625 42.234375 -7.625 C 42.816406 -7.625 43.335938 -7.679688 43.796875 -7.796875 C 44.265625 -7.910156 44.703125 -8.039062 45.109375 -8.1875 C 45.515625 -8.34375 45.894531 -8.472656 46.25 -8.578125 C 46.613281 -8.691406 46.976562 -8.75 47.34375 -8.75 C 47.988281 -8.75 48.554688 -8.46875 49.046875 -7.90625 C 49.535156 -7.351562 49.78125 -6.6875 49.78125 -5.90625 C 49.78125 -5.125 49.476562 -4.34375 48.875 -3.5625 C 48.269531 -2.78125 47.476562 -2.070312 46.5 -1.4375 C 45.53125 -0.8125 44.429688 -0.304688 43.203125 0.078125 C 41.972656 0.472656 40.726562 0.671875 39.46875 0.671875 C 37.289062 0.671875 35.378906 -0.226562 33.734375 -2.03125 C 32.085938 -3.832031 30.910156 -6.476562 30.203125 -9.96875 C 30.035156 -10.53125 29.816406 -10.8125 29.546875 -10.8125 C 29.203125 -10.8125 28.90625 -10.644531 28.65625 -10.3125 C 25.894531 -6.8125 22.945312 -4.1875 19.8125 -2.4375 C 16.6875 -0.695312 13.601562 0.171875 10.5625 0.171875 C 9.132812 0.171875 7.847656 -0.0351562 6.703125 -0.453125 C 5.554688 -0.878906 4.582031 -1.472656 3.78125 -2.234375 C 2.988281 -3.003906 2.375 -3.941406 1.9375 -5.046875 C 1.507812 -6.148438 1.296875 -7.382812 1.296875 -8.75 C 1.296875 -10.675781 1.722656 -12.703125 2.578125 -14.828125 C 3.429688 -16.953125 4.582031 -19.046875 6.03125 -21.109375 C 7.488281 -23.179688 9.171875 -25.148438 11.078125 -27.015625 C 12.992188 -28.890625 15.003906 -30.539062 17.109375 -31.96875 C 19.222656 -33.394531 21.367188 -34.523438 23.546875 -35.359375 C 25.722656 -36.203125 27.804688 -36.625 29.796875 -36.625 Z M 28.40625 -22.125 C 28.90625 -23.070312 29.363281 -23.757812 29.78125 -24.1875 C 30.207031 -24.625 30.8125 -24.914062 31.59375 -25.0625 C 32.207031 -25.144531 32.515625 -25.335938 32.515625 -25.640625 C 32.515625 -25.867188 32.429688 -26.109375 32.265625 -26.359375 C 31.734375 -27.078125 31.171875 -27.707031 30.578125 -28.25 C 29.992188 -28.800781 29.210938 -29.078125 28.234375 -29.078125 C 27.179688 -29.078125 25.992188 -28.769531 24.671875 -28.15625 C 23.359375 -27.539062 22.023438 -26.722656 20.671875 -25.703125 C 19.316406 -24.679688 17.988281 -23.519531 16.6875 -22.21875 C 15.394531 -20.925781 14.242188 -19.59375 13.234375 -18.21875 C 12.234375 -16.851562 11.425781 -15.5 10.8125 -14.15625 C 10.195312 -12.820312 9.890625 -11.625 9.890625 -10.5625 C 9.890625 -9.613281 10.144531 -8.875 10.65625 -8.34375 C 11.175781 -7.8125 11.882812 -7.546875 12.78125 -7.546875 C 15.070312 -7.546875 17.570312 -8.757812 20.28125 -11.1875 C 22.988281 -13.613281 25.695312 -17.257812 28.40625 -22.125 Z M 28.40625 -22.125 "/></g></g></g><g fill="#000000" fill-opacity="1"><g transform="translate(182.337161, 301.615351)"><g><path d="M -0.59375 -29.25 C -0.59375 -30.332031 -0.101562 -31.160156 0.875 -31.734375 C 1.851562 -32.304688 3.25 -32.59375 5.0625 -32.59375 C 5.488281 -32.59375 5.867188 -32.535156 6.203125 -32.421875 C 6.535156 -32.316406 6.832031 -32.101562 7.09375 -31.78125 C 7.363281 -31.457031 7.609375 -31.015625 7.828125 -30.453125 C 8.054688 -29.898438 8.28125 -29.191406 8.5 -28.328125 C 8.726562 -27.347656 8.953125 -26.859375 9.171875 -26.859375 C 9.367188 -26.859375 9.609375 -27.265625 9.890625 -28.078125 C 10.390625 -29.671875 11.050781 -31.054688 11.875 -32.234375 C 12.695312 -33.421875 13.625 -34.410156 14.65625 -35.203125 C 15.695312 -36.003906 16.820312 -36.597656 18.03125 -36.984375 C 19.25 -37.378906 20.53125 -37.578125 21.875 -37.578125 C 24.582031 -37.578125 27.109375 -37.066406 29.453125 -36.046875 C 31.796875 -35.035156 33.820312 -33.628906 35.53125 -31.828125 C 37.238281 -30.023438 38.578125 -27.898438 39.546875 -25.453125 C 40.523438 -23.003906 41.015625 -20.359375 41.015625 -17.515625 C 41.015625 -14.492188 40.488281 -11.695312 39.4375 -9.125 C 38.394531 -6.5625 36.9375 -4.347656 35.0625 -2.484375 C 33.195312 -0.628906 30.972656 0.816406 28.390625 1.859375 C 25.804688 2.910156 22.976562 3.4375 19.90625 3.4375 L 17.765625 3.359375 C 16.503906 3.359375 15.875 4.066406 15.875 5.484375 L 18.015625 24.71875 C 17.984375 25.195312 17.820312 25.640625 17.53125 26.046875 C 17.238281 26.453125 16.847656 26.804688 16.359375 27.109375 C 15.867188 27.421875 15.296875 27.660156 14.640625 27.828125 C 13.984375 27.992188 13.304688 28.078125 12.609375 28.078125 C 10.597656 28.078125 9.507812 27.421875 9.34375 26.109375 C 8.757812 21.023438 8.109375 16.191406 7.390625 11.609375 C 6.679688 7.023438 5.957031 2.757812 5.21875 -1.1875 C 4.476562 -5.144531 3.757812 -8.742188 3.0625 -11.984375 C 2.363281 -15.222656 1.738281 -18.039062 1.1875 -20.4375 C 0.644531 -22.84375 0.210938 -24.800781 -0.109375 -26.3125 C -0.429688 -27.820312 -0.59375 -28.800781 -0.59375 -29.25 Z M 13.03125 -18.1875 C 13.03125 -16.375 13.097656 -14.578125 13.234375 -12.796875 C 13.378906 -11.023438 13.601562 -9.109375 13.90625 -7.046875 C 14.070312 -5.785156 14.757812 -5.070312 15.96875 -4.90625 C 16.6875 -4.738281 17.5 -4.578125 18.40625 -4.421875 C 19.320312 -4.265625 20.085938 -4.1875 20.703125 -4.1875 C 22.484375 -4.1875 24.097656 -4.453125 25.546875 -4.984375 C 27.003906 -5.515625 28.25 -6.273438 29.28125 -7.265625 C 30.320312 -8.253906 31.117188 -9.429688 31.671875 -10.796875 C 32.234375 -12.171875 32.515625 -13.695312 32.515625 -15.375 C 32.515625 -17.414062 32.234375 -19.320312 31.671875 -21.09375 C 31.117188 -22.863281 30.359375 -24.40625 29.390625 -25.71875 C 28.429688 -27.039062 27.300781 -28.078125 26 -28.828125 C 24.695312 -29.578125 23.289062 -29.953125 21.78125 -29.953125 C 20.46875 -29.953125 19.273438 -29.664062 18.203125 -29.09375 C 17.128906 -28.519531 16.207031 -27.722656 15.4375 -26.703125 C 14.664062 -25.691406 14.070312 -24.457031 13.65625 -23 C 13.238281 -21.550781 13.03125 -19.945312 13.03125 -18.1875 Z M 13.03125 -18.1875 "/></g></g></g><g fill="#000000" fill-opacity="1"><g transform="translate(224.569109, 301.615351)"><g><path d="M 9.765625 -42.734375 C 8.953125 -42.734375 8.1875 -42.851562 7.46875 -43.09375 C 6.757812 -43.332031 6.144531 -43.664062 5.625 -44.09375 C 5.113281 -44.53125 4.703125 -45.039062 4.390625 -45.625 C 4.085938 -46.21875 3.9375 -46.863281 3.9375 -47.5625 C 3.9375 -48.726562 4.40625 -49.675781 5.34375 -50.40625 C 6.28125 -51.132812 7.53125 -51.5 9.09375 -51.5 C 9.820312 -51.5 10.519531 -51.363281 11.1875 -51.09375 C 11.851562 -50.832031 12.445312 -50.476562 12.96875 -50.03125 C 13.488281 -49.582031 13.898438 -49.054688 14.203125 -48.453125 C 14.515625 -47.859375 14.671875 -47.238281 14.671875 -46.59375 C 14.671875 -45.394531 14.226562 -44.453125 13.34375 -43.765625 C 12.46875 -43.078125 11.273438 -42.734375 9.765625 -42.734375 Z M 4.015625 -29.953125 C 4.015625 -30.929688 4.441406 -31.734375 5.296875 -32.359375 C 6.148438 -32.992188 7.273438 -33.3125 8.671875 -33.3125 C 11.179688 -33.3125 12.523438 -32.445312 12.703125 -30.71875 C 12.804688 -29.507812 12.921875 -28.148438 13.046875 -26.640625 C 13.171875 -25.140625 13.296875 -23.539062 13.421875 -21.84375 C 13.554688 -20.15625 13.671875 -18.410156 13.765625 -16.609375 C 13.859375 -14.804688 13.945312 -13.03125 14.03125 -11.28125 C 14.113281 -9.539062 14.179688 -7.859375 14.234375 -6.234375 C 14.296875 -4.617188 14.328125 -3.140625 14.328125 -1.796875 C 14.328125 -0.398438 13.832031 0.644531 12.84375 1.34375 C 11.851562 2.039062 10.40625 2.390625 8.5 2.390625 C 7.632812 2.390625 6.957031 2.1875 6.46875 1.78125 C 5.976562 1.375 5.734375 0.78125 5.734375 0 C 5.734375 -3.851562 5.644531 -7.460938 5.46875 -10.828125 C 5.289062 -14.191406 5.09375 -17.1875 4.875 -19.8125 C 4.664062 -22.4375 4.46875 -24.625 4.28125 -26.375 C 4.101562 -28.125 4.015625 -29.316406 4.015625 -29.953125 Z M 4.015625 -29.953125 "/></g></g></g><g fill="#000000" fill-opacity="1"><g transform="translate(243.171276, 301.615351)"><g><path d="M 39.140625 -9.171875 C 39.941406 -9.867188 40.738281 -10.21875 41.53125 -10.21875 C 41.96875 -10.21875 42.367188 -10.101562 42.734375 -9.875 C 43.097656 -9.65625 43.503906 -9.3125 43.953125 -8.84375 C 44.367188 -8.195312 44.664062 -7.671875 44.84375 -7.265625 C 45.03125 -6.859375 45.125 -6.460938 45.125 -6.078125 C 45.125 -5.234375 44.707031 -4.4375 43.875 -3.6875 C 42.53125 -2.570312 41.078125 -1.570312 39.515625 -0.6875 C 37.953125 0.1875 36.316406 0.929688 34.609375 1.546875 C 32.898438 2.160156 31.140625 2.628906 29.328125 2.953125 C 27.515625 3.273438 25.710938 3.4375 23.921875 3.4375 C 21.660156 3.4375 19.535156 3.148438 17.546875 2.578125 C 15.566406 2.003906 13.800781 1.1875 12.25 0.125 C 10.707031 -0.9375 9.40625 -2.210938 8.34375 -3.703125 C 7.28125 -5.203125 6.523438 -6.882812 6.078125 -8.75 C 5.828125 -9.539062 5.59375 -10.050781 5.375 -10.28125 C 5.164062 -10.519531 4.828125 -10.640625 4.359375 -10.640625 C 3.328125 -10.640625 2.53125 -10.890625 1.96875 -11.390625 C 1.40625 -11.898438 1.125 -12.628906 1.125 -13.578125 C 1.125 -13.960938 1.15625 -14.210938 1.21875 -14.328125 L 1.296875 -15.171875 C 1.441406 -16.171875 1.710938 -16.894531 2.109375 -17.34375 C 2.515625 -17.789062 3.148438 -18.015625 4.015625 -18.015625 L 4.65625 -18.015625 C 5.820312 -18.015625 6.644531 -18.5625 7.125 -19.65625 C 7.988281 -21.582031 9.085938 -23.335938 10.421875 -24.921875 C 11.765625 -26.515625 13.273438 -27.878906 14.953125 -29.015625 C 16.628906 -30.148438 18.425781 -31.03125 20.34375 -31.65625 C 22.257812 -32.28125 24.207031 -32.59375 26.1875 -32.59375 C 28.25 -32.59375 30.179688 -32.289062 31.984375 -31.6875 C 33.785156 -31.09375 35.359375 -30.265625 36.703125 -29.203125 C 38.046875 -28.140625 39.097656 -26.894531 39.859375 -25.46875 C 40.628906 -24.050781 41.015625 -22.515625 41.015625 -20.859375 C 41.015625 -19.722656 40.789062 -18.675781 40.34375 -17.71875 C 39.90625 -16.769531 39.265625 -15.9375 38.421875 -15.21875 C 37.585938 -14.507812 36.578125 -13.929688 35.390625 -13.484375 C 34.203125 -13.046875 32.851562 -12.753906 31.34375 -12.609375 L 16.796875 -11.140625 C 16.242188 -11.140625 15.789062 -11 15.4375 -10.71875 C 15.09375 -10.445312 14.921875 -10.070312 14.921875 -9.59375 C 14.921875 -8.863281 15.191406 -8.164062 15.734375 -7.5 C 16.273438 -6.832031 17 -6.238281 17.90625 -5.71875 C 18.820312 -5.195312 19.867188 -4.78125 21.046875 -4.46875 C 22.234375 -4.164062 23.457031 -4.015625 24.71875 -4.015625 C 25.914062 -4.015625 27.148438 -4.132812 28.421875 -4.375 C 29.703125 -4.613281 30.960938 -4.957031 32.203125 -5.40625 C 33.441406 -5.851562 34.644531 -6.390625 35.8125 -7.015625 C 36.988281 -7.648438 38.097656 -8.367188 39.140625 -9.171875 Z M 29.796875 -19.984375 C 30.210938 -20.066406 30.570312 -20.269531 30.875 -20.59375 C 31.1875 -20.914062 31.34375 -21.3125 31.34375 -21.78125 C 31.34375 -22.207031 31.1875 -22.597656 30.875 -22.953125 C 30.570312 -23.316406 30.15625 -23.644531 29.625 -23.9375 C 29.09375 -24.238281 28.476562 -24.472656 27.78125 -24.640625 C 27.082031 -24.804688 26.34375 -24.890625 25.5625 -24.890625 C 24.414062 -24.890625 23.238281 -24.722656 22.03125 -24.390625 C 20.832031 -24.054688 19.742188 -23.613281 18.765625 -23.0625 C 17.796875 -22.519531 17.003906 -21.921875 16.390625 -21.265625 C 15.773438 -20.609375 15.46875 -19.957031 15.46875 -19.3125 C 15.46875 -18.675781 15.859375 -18.359375 16.640625 -18.359375 C 17.109375 -18.359375 17.875 -18.410156 18.9375 -18.515625 C 20 -18.628906 21.171875 -18.765625 22.453125 -18.921875 C 23.742188 -19.078125 25.046875 -19.25 26.359375 -19.4375 C 27.671875 -19.632812 28.816406 -19.816406 29.796875 -19.984375 Z M 29.796875 -19.984375 "/></g></g></g><g fill="#000000" fill-opacity="1"><g transform="translate(287.456175, 301.615351)"><g><path d="M 26.1875 -31.34375 C 25.15625 -31.34375 24.25 -31.066406 23.46875 -30.515625 C 22.6875 -29.972656 22.015625 -29.21875 21.453125 -28.25 C 20.890625 -27.289062 20.425781 -26.160156 20.0625 -24.859375 C 19.707031 -23.566406 19.414062 -22.148438 19.1875 -20.609375 C 18.96875 -19.078125 18.816406 -17.472656 18.734375 -15.796875 C 18.648438 -14.117188 18.609375 -12.429688 18.609375 -10.734375 C 18.609375 -8.492188 18.695312 -6.289062 18.875 -4.125 C 19.0625 -1.957031 19.15625 0.046875 19.15625 1.890625 C 19.15625 3.085938 18.707031 4.023438 17.8125 4.703125 C 16.914062 5.390625 15.644531 5.734375 14 5.734375 C 13.6875 5.734375 13.332031 5.707031 12.9375 5.65625 C 12.550781 5.601562 12.179688 5.488281 11.828125 5.3125 C 11.484375 5.144531 11.175781 4.914062 10.90625 4.625 C 10.644531 4.332031 10.5 3.9375 10.46875 3.4375 C 10.21875 0.976562 9.851562 -1.535156 9.375 -4.109375 C 8.90625 -6.679688 8.3125 -9.242188 7.59375 -11.796875 C 6.882812 -14.347656 6.035156 -16.878906 5.046875 -19.390625 C 4.054688 -21.910156 2.921875 -24.375 1.640625 -26.78125 C 1.410156 -27.195312 1.21875 -27.585938 1.0625 -27.953125 C 0.914062 -28.316406 0.84375 -28.664062 0.84375 -29 C 0.84375 -29.414062 1.03125 -29.867188 1.40625 -30.359375 C 1.78125 -30.847656 2.253906 -31.300781 2.828125 -31.71875 C 3.398438 -32.132812 4.023438 -32.472656 4.703125 -32.734375 C 5.390625 -33.003906 6.054688 -33.140625 6.703125 -33.140625 C 7.765625 -33.140625 8.703125 -32.40625 9.515625 -30.9375 C 10.328125 -29.476562 11.082031 -27.140625 11.78125 -23.921875 C 11.914062 -23.367188 12.023438 -22.976562 12.109375 -22.75 C 12.191406 -22.53125 12.300781 -22.421875 12.4375 -22.421875 C 12.75 -22.421875 12.945312 -22.894531 13.03125 -23.84375 C 13.363281 -26.5 13.9375 -28.78125 14.75 -30.6875 C 15.5625 -32.601562 16.570312 -34.179688 17.78125 -35.421875 C 19 -36.671875 20.394531 -37.585938 21.96875 -38.171875 C 23.550781 -38.753906 25.289062 -39.046875 27.1875 -39.046875 C 28.28125 -39.046875 29.382812 -38.945312 30.5 -38.75 C 31.625 -38.5625 32.628906 -38.269531 33.515625 -37.875 C 34.410156 -37.488281 35.132812 -37.015625 35.6875 -36.453125 C 36.25 -35.890625 36.53125 -35.257812 36.53125 -34.5625 C 36.53125 -34.0625 36.425781 -33.46875 36.21875 -32.78125 C 36.007812 -32.101562 35.738281 -31.445312 35.40625 -30.8125 C 35.070312 -30.1875 34.6875 -29.65625 34.25 -29.21875 C 33.820312 -28.789062 33.382812 -28.578125 32.9375 -28.578125 C 32.4375 -28.578125 31.945312 -28.722656 31.46875 -29.015625 C 30.988281 -29.304688 30.476562 -29.617188 29.9375 -29.953125 C 29.394531 -30.296875 28.820312 -30.613281 28.21875 -30.90625 C 27.613281 -31.195312 26.9375 -31.34375 26.1875 -31.34375 Z M 26.1875 -31.34375 "/></g></g></g></svg>