<svg xmlns="http://www.w3.org/2000/svg" xmlns:xlink="http://www.w3.org/1999/xlink" width="500" zoomAndPan="magnify" viewBox="0 0 375 374.999991" height="500" preserveAspectRatio="xMidYMid meet" version="1.0"><defs><clipPath id="675a33d1e9"><path d="M 110.980469 144.882812 L 240.488281 144.882812 L 240.488281 219.21875 L 110.980469 219.21875 Z M 110.980469 144.882812 " clip-rule="nonzero"/></clipPath><clipPath id="2b3840b1c6"><path d="M 199.414062 144.882812 C 222.058594 144.882812 240.417969 161.523438 240.417969 182.050781 C 240.417969 202.578125 222.058594 219.21875 199.414062 219.21875 L 151.980469 219.21875 C 129.335938 219.21875 110.980469 202.578125 110.980469 182.050781 C 110.980469 161.523438 129.335938 144.882812 151.980469 144.882812 Z M 199.414062 144.882812 " clip-rule="nonzero"/></clipPath><clipPath id="37e0fe7677"><path d="M 110.980469 144.882812 L 240.730469 144.882812 L 240.730469 219.132812 L 110.980469 219.132812 Z M 110.980469 144.882812 " clip-rule="nonzero"/></clipPath><clipPath id="c870ca050e"><path d="M 199.410156 144.882812 C 222.054688 144.882812 240.410156 161.523438 240.410156 182.046875 C 240.410156 202.574219 222.054688 219.214844 199.410156 219.214844 L 151.980469 219.214844 C 129.335938 219.214844 110.980469 202.574219 110.980469 182.046875 C 110.980469 161.523438 129.335938 144.882812 151.980469 144.882812 Z M 199.410156 144.882812 " clip-rule="nonzero"/></clipPath></defs><rect x="-37.5" width="450" fill="#ffffff" y="-37.499999" height="449.999989" fill-opacity="1"/><rect x="-37.5" width="450" fill="#ffffff" y="-37.499999" height="449.999989" fill-opacity="1"/><g clip-path="url(#675a33d1e9)"><g clip-path="url(#2b3840b1c6)"><path fill="#ffde00" d="M 110.980469 144.882812 L 240.488281 144.882812 L 240.488281 219.21875 L 110.980469 219.21875 Z M 110.980469 144.882812 " fill-opacity="1" fill-rule="nonzero"/></g></g><g clip-path="url(#37e0fe7677)"><g clip-path="url(#c870ca050e)"><path stroke-linecap="butt" transform="matrix(0.75, 0, 0, 0.75, 110.981695, 144.882238)" fill="none" stroke-linejoin="miter" d="M 117.904615 0.000766419 C 148.097324 0.000766419 172.571282 22.188266 172.571282 49.55285 C 172.571282 76.922642 148.097324 99.110142 117.904615 99.110142 L 54.665032 99.110142 C 24.472324 99.110142 -0.00163475 76.922642 -0.00163475 49.55285 C -0.00163475 22.188266 24.472324 0.000766419 54.665032 0.000766419 Z M 117.904615 0.000766419 " stroke="#5ce1e6" stroke-width="20" stroke-opacity="1" stroke-miterlimit="4"/></g></g></svg>