<svg xmlns="http://www.w3.org/2000/svg" xmlns:xlink="http://www.w3.org/1999/xlink" width="500" zoomAndPan="magnify" viewBox="0 0 375 374.999991" height="500" preserveAspectRatio="xMidYMid meet" version="1.0"><defs><clipPath id="97e44b1c25"><path d="M 37.5 52.394531 L 359.425781 52.394531 L 359.425781 237.179688 L 37.5 237.179688 Z M 37.5 52.394531 " clip-rule="nonzero"/></clipPath><clipPath id="bc5625e0e6"><path d="M 257.328125 52.394531 C 313.617188 52.394531 359.25 93.761719 359.25 144.785156 C 359.25 195.8125 313.617188 237.179688 257.328125 237.179688 L 139.421875 237.179688 C 83.132812 237.179688 37.5 195.8125 37.5 144.785156 C 37.5 93.761719 83.132812 52.394531 139.421875 52.394531 Z M 257.328125 52.394531 " clip-rule="nonzero"/></clipPath><clipPath id="eefc0cfb5c"><path d="M 37.5 52.398438 L 359.25 52.398438 L 359.25 236.894531 L 37.5 236.894531 Z M 37.5 52.398438 " clip-rule="nonzero"/></clipPath><clipPath id="f0b71baf6f"><path d="M 257.320312 52.398438 C 313.609375 52.398438 359.238281 93.761719 359.238281 144.785156 C 359.238281 195.808594 313.609375 237.175781 257.320312 237.175781 L 139.417969 237.175781 C 83.128906 237.175781 37.5 195.808594 37.5 144.785156 C 37.5 93.761719 83.128906 52.398438 139.417969 52.398438 Z M 257.320312 52.398438 " clip-rule="nonzero"/></clipPath></defs><g clip-path="url(#97e44b1c25)"><g clip-path="url(#bc5625e0e6)"><path fill="#ffde00" d="M 37.5 52.394531 L 359.425781 52.394531 L 359.425781 237.179688 L 37.5 237.179688 Z M 37.5 52.394531 " fill-opacity="1" fill-rule="nonzero"/></g></g><g clip-path="url(#eefc0cfb5c)"><g clip-path="url(#f0b71baf6f)"><path stroke-linecap="butt" transform="matrix(0.75, 0, 0, 0.75, 37.500002, 52.397567)" fill="none" stroke-linejoin="miter" d="M 293.093748 0.00116072 C 368.145831 0.00116072 428.984373 55.152202 428.984373 123.183453 C 428.984373 191.214703 368.145831 246.370953 293.093748 246.370953 L 135.890623 246.370953 C 60.838539 246.370953 -0.00000271667 191.214703 -0.00000271667 123.183453 C -0.00000271667 55.152202 60.838539 0.00116072 135.890623 0.00116072 Z M 293.093748 0.00116072 " stroke="#5ce1e6" stroke-width="44" stroke-opacity="1" stroke-miterlimit="4"/></g></g></svg>