<svg xmlns="http://www.w3.org/2000/svg" xmlns:xlink="http://www.w3.org/1999/xlink" width="500" zoomAndPan="magnify" viewBox="0 0 375 374.999991" height="500" preserveAspectRatio="xMidYMid meet" version="1.0"><defs><g/><clipPath id="097b49eaac"><path d="M 39.289062 144.882812 L 94.894531 144.882812 L 94.894531 176.800781 L 39.289062 176.800781 Z M 39.289062 144.882812 " clip-rule="nonzero"/></clipPath><clipPath id="9ab6650a26"><path d="M 77.257812 144.882812 C 86.980469 144.882812 94.863281 152.027344 94.863281 160.839844 C 94.863281 169.65625 86.980469 176.800781 77.257812 176.800781 L 56.894531 176.800781 C 47.171875 176.800781 39.289062 169.65625 39.289062 160.839844 C 39.289062 152.027344 47.171875 144.882812 56.894531 144.882812 Z M 77.257812 144.882812 " clip-rule="nonzero"/></clipPath><clipPath id="9bcacc29ad"><path d="M 39.292969 144.882812 L 94.789062 144.882812 L 94.789062 177 L 39.292969 177 Z M 39.292969 144.882812 " clip-rule="nonzero"/></clipPath><clipPath id="59990ad5aa"><path d="M 77.253906 144.882812 C 86.976562 144.882812 94.855469 152.027344 94.855469 160.835938 C 94.855469 169.648438 86.976562 176.792969 77.253906 176.792969 L 56.894531 176.792969 C 47.171875 176.792969 39.292969 169.648438 39.292969 160.835938 C 39.292969 152.027344 47.171875 144.882812 56.894531 144.882812 Z M 77.253906 144.882812 " clip-rule="nonzero"/></clipPath></defs><g clip-path="url(#097b49eaac)"><g clip-path="url(#9ab6650a26)"><path fill="#ffde00" d="M 39.289062 144.882812 L 94.894531 144.882812 L 94.894531 176.800781 L 39.289062 176.800781 Z M 39.289062 144.882812 " fill-opacity="1" fill-rule="nonzero"/></g></g><g clip-path="url(#9bcacc29ad)"><g clip-path="url(#59990ad5aa)"><path stroke-linecap="butt" transform="matrix(0.75, 0, 0, 0.75, 39.29204, 144.882252)" fill="none" stroke-linejoin="miter" d="M 50.615828 0.000747219 C 63.579371 0.000747219 74.084581 9.52679 74.084581 21.271583 C 74.084581 33.021585 63.579371 42.547628 50.615828 42.547628 L 23.469991 42.547628 C 10.506447 42.547628 0.0012378 33.021585 0.0012378 21.271583 C 0.0012378 9.52679 10.506447 0.000747219 23.469991 0.000747219 Z M 50.615828 0.000747219 " stroke="#5ce1e6" stroke-width="20" stroke-opacity="1" stroke-miterlimit="4"/></g></g><g fill="#000000" fill-opacity="1"><g transform="translate(99.756303, 168.933945)"><g><path d="M 1.484375 -20.484375 L 7.421875 -20.484375 C 10.265625 -20.484375 12.695312 -19.507812 14.71875 -17.5625 C 16.738281 -15.625 17.75 -13.1875 17.75 -10.25 C 17.75 -7.300781 16.742188 -4.851562 14.734375 -2.90625 C 12.722656 -0.96875 10.285156 0 7.421875 0 L 1.484375 0 Z M 6.15625 -4.171875 L 6.875 -4.171875 C 8.582031 -4.171875 9.976562 -4.742188 11.0625 -5.890625 C 12.144531 -7.046875 12.695312 -8.492188 12.71875 -10.234375 C 12.71875 -11.972656 12.171875 -13.421875 11.078125 -14.578125 C 9.992188 -15.734375 8.59375 -16.3125 6.875 -16.3125 L 6.15625 -16.3125 Z M 6.15625 -4.171875 "/></g></g></g><g fill="#000000" fill-opacity="1"><g transform="translate(118.082519, 168.933945)"><g><path d="M 1.484375 0 L 1.484375 -12.734375 L 5.890625 -12.734375 L 5.890625 -10.90625 L 5.9375 -10.90625 C 5.96875 -10.96875 6.019531 -11.046875 6.09375 -11.140625 C 6.164062 -11.242188 6.328125 -11.421875 6.578125 -11.671875 C 6.828125 -11.921875 7.09375 -12.144531 7.375 -12.34375 C 7.65625 -12.539062 8.019531 -12.71875 8.46875 -12.875 C 8.914062 -13.03125 9.367188 -13.109375 9.828125 -13.109375 C 10.304688 -13.109375 10.773438 -13.039062 11.234375 -12.90625 C 11.703125 -12.78125 12.046875 -12.648438 12.265625 -12.515625 L 12.609375 -12.3125 L 10.78125 -8.59375 C 10.226562 -9.050781 9.460938 -9.28125 8.484375 -9.28125 C 7.960938 -9.28125 7.507812 -9.164062 7.125 -8.9375 C 6.738281 -8.707031 6.46875 -8.425781 6.3125 -8.09375 C 6.15625 -7.757812 6.046875 -7.476562 5.984375 -7.25 C 5.921875 -7.019531 5.890625 -6.835938 5.890625 -6.703125 L 5.890625 0 Z M 1.484375 0 "/></g></g></g><g fill="#000000" fill-opacity="1"><g transform="translate(130.448988, 168.933945)"><g><path d="M 2.359375 -1.578125 C 1.171875 -2.878906 0.578125 -4.472656 0.578125 -6.359375 C 0.578125 -8.242188 1.171875 -9.835938 2.359375 -11.140625 C 3.546875 -12.453125 5.0625 -13.109375 6.90625 -13.109375 C 8.59375 -13.109375 9.984375 -12.578125 11.078125 -11.515625 L 11.078125 -12.734375 L 15.46875 -12.734375 L 15.46875 0 L 11.125 0 L 11.125 -1.4375 L 11.078125 -1.4375 C 9.984375 -0.226562 8.59375 0.375 6.90625 0.375 C 5.0625 0.375 3.546875 -0.273438 2.359375 -1.578125 Z M 6.09375 -8.515625 C 5.519531 -7.953125 5.234375 -7.234375 5.234375 -6.359375 C 5.234375 -5.484375 5.503906 -4.765625 6.046875 -4.203125 C 6.597656 -3.648438 7.320312 -3.375 8.21875 -3.375 C 9.082031 -3.375 9.789062 -3.65625 10.34375 -4.21875 C 10.894531 -4.78125 11.171875 -5.492188 11.171875 -6.359375 C 11.171875 -7.234375 10.882812 -7.953125 10.3125 -8.515625 C 9.738281 -9.078125 9.039062 -9.359375 8.21875 -9.359375 C 7.375 -9.359375 6.664062 -9.078125 6.09375 -8.515625 Z M 6.09375 -8.515625 "/></g></g></g><g fill="#000000" fill-opacity="1"><g transform="translate(147.409428, 168.933945)"><g><path d="M 14.59375 -11.15625 C 15.789062 -9.863281 16.390625 -8.269531 16.390625 -6.375 C 16.390625 -4.488281 15.789062 -2.890625 14.59375 -1.578125 C 13.40625 -0.273438 11.894531 0.375 10.0625 0.375 C 8.363281 0.375 6.972656 -0.15625 5.890625 -1.21875 L 5.890625 6.453125 L 1.484375 6.453125 L 1.484375 -12.734375 L 5.828125 -12.734375 L 5.828125 -11.296875 L 5.890625 -11.296875 C 6.972656 -12.503906 8.363281 -13.109375 10.0625 -13.109375 C 11.894531 -13.109375 13.40625 -12.457031 14.59375 -11.15625 Z M 10.859375 -4.21875 C 11.429688 -4.78125 11.71875 -5.5 11.71875 -6.375 C 11.71875 -7.257812 11.441406 -7.976562 10.890625 -8.53125 C 10.347656 -9.082031 9.628906 -9.359375 8.734375 -9.359375 C 7.878906 -9.359375 7.171875 -9.078125 6.609375 -8.515625 C 6.054688 -7.953125 5.78125 -7.238281 5.78125 -6.375 C 5.78125 -5.5 6.066406 -4.78125 6.640625 -4.21875 C 7.210938 -3.65625 7.910156 -3.375 8.734375 -3.375 C 9.578125 -3.375 10.285156 -3.65625 10.859375 -4.21875 Z M 10.859375 -4.21875 "/></g></g></g><g fill="#000000" fill-opacity="1"><g transform="translate(164.369867, 168.933945)"><g><path d="M 1.90625 -19.828125 C 2.425781 -20.347656 3.039062 -20.609375 3.75 -20.609375 C 4.457031 -20.609375 5.066406 -20.347656 5.578125 -19.828125 C 6.097656 -19.316406 6.359375 -18.707031 6.359375 -18 C 6.359375 -17.289062 6.097656 -16.675781 5.578125 -16.15625 C 5.066406 -15.644531 4.457031 -15.390625 3.75 -15.390625 C 3.039062 -15.390625 2.425781 -15.644531 1.90625 -16.15625 C 1.394531 -16.675781 1.140625 -17.289062 1.140625 -18 C 1.140625 -18.707031 1.394531 -19.316406 1.90625 -19.828125 Z M 1.484375 -12.734375 L 1.484375 0 L 5.890625 0 L 5.890625 -12.734375 Z M 1.484375 -12.734375 "/></g></g></g><g fill="#000000" fill-opacity="1"><g transform="translate(171.86921, 168.933945)"><g><path d="M 14.375 -5.765625 L 5.140625 -5.765625 C 5.140625 -4.867188 5.425781 -4.203125 6 -3.765625 C 6.582031 -3.335938 7.210938 -3.125 7.890625 -3.125 C 8.609375 -3.125 9.171875 -3.21875 9.578125 -3.40625 C 9.992188 -3.601562 10.46875 -3.984375 11 -4.546875 L 14.171875 -2.953125 C 12.847656 -0.734375 10.648438 0.375 7.578125 0.375 C 5.648438 0.375 4 -0.28125 2.625 -1.59375 C 1.257812 -2.914062 0.578125 -4.503906 0.578125 -6.359375 C 0.578125 -8.210938 1.257812 -9.800781 2.625 -11.125 C 4 -12.445312 5.648438 -13.109375 7.578125 -13.109375 C 9.597656 -13.109375 11.238281 -12.523438 12.5 -11.359375 C 13.769531 -10.191406 14.40625 -8.523438 14.40625 -6.359375 C 14.40625 -6.054688 14.394531 -5.859375 14.375 -5.765625 Z M 5.265625 -8.1875 L 10.109375 -8.1875 C 10.003906 -8.851562 9.738281 -9.363281 9.3125 -9.71875 C 8.894531 -10.070312 8.359375 -10.25 7.703125 -10.25 C 6.972656 -10.25 6.390625 -10.054688 5.953125 -9.671875 C 5.523438 -9.296875 5.296875 -8.800781 5.265625 -8.1875 Z M 5.265625 -8.1875 "/></g></g></g><g fill="#000000" fill-opacity="1"><g transform="translate(186.843069, 168.933945)"><g><path d="M 1.484375 0 L 1.484375 -12.734375 L 5.890625 -12.734375 L 5.890625 -10.90625 L 5.9375 -10.90625 C 5.96875 -10.96875 6.019531 -11.046875 6.09375 -11.140625 C 6.164062 -11.242188 6.328125 -11.421875 6.578125 -11.671875 C 6.828125 -11.921875 7.09375 -12.144531 7.375 -12.34375 C 7.65625 -12.539062 8.019531 -12.71875 8.46875 -12.875 C 8.914062 -13.03125 9.367188 -13.109375 9.828125 -13.109375 C 10.304688 -13.109375 10.773438 -13.039062 11.234375 -12.90625 C 11.703125 -12.78125 12.046875 -12.648438 12.265625 -12.515625 L 12.609375 -12.3125 L 10.78125 -8.59375 C 10.226562 -9.050781 9.460938 -9.28125 8.484375 -9.28125 C 7.960938 -9.28125 7.507812 -9.164062 7.125 -8.9375 C 6.738281 -8.707031 6.46875 -8.425781 6.3125 -8.09375 C 6.15625 -7.757812 6.046875 -7.476562 5.984375 -7.25 C 5.921875 -7.019531 5.890625 -6.835938 5.890625 -6.703125 L 5.890625 0 Z M 1.484375 0 "/></g></g></g></svg>